<?xml version="1.0" encoding="iso-8859-1"?>
<!-- Generator: Adobe Illustrator 19.0.0, SVG Export Plug-In . SVG Version: 6.00 Build 0)  -->
<svg version="1.1" id="Capa_1" xmlns="http://www.w3.org/2000/svg" xmlns:xlink="http://www.w3.org/1999/xlink" x="0px" y="0px"
	 viewBox="0 0 512 512" style="enable-background:new 0 0 512 512;" xml:space="preserve">
<g>
	<g>
		<path d="M467,0H45C20.187,0,0,20.188,0,45v204.423c0,6.455,1.427,12.965,4.127,18.825l100.211,217.577
			c7.324,15.9,23.368,26.174,40.874,26.174h221.576c17.506,0,33.55-10.274,40.874-26.175L507.873,268.25
			c2.7-5.861,4.127-12.372,4.127-18.826V45C512,20.188,491.813,0,467,0z M441,128c0,8.284-6.716,15-15,15s-15-6.716-15-15v-27H285
			v310h27c8.284,0,15,6.716,15,15s-6.716,15-15,15c-11.632,0-99.312,0-112,0c-8.284,0-15-6.716-15-15s6.716-15,15-15h27V101H101v27
			c0,8.284-6.716,15-15,15s-15-6.716-15-15V86c0-8.284,6.716-15,15-15c7.011,0,337.147,0,340,0c8.284,0,15,6.716,15,15V128z"/>
	</g>
</g>
<g>
</g>
<g>
</g>
<g>
</g>
<g>
</g>
<g>
</g>
<g>
</g>
<g>
</g>
<g>
</g>
<g>
</g>
<g>
</g>
<g>
</g>
<g>
</g>
<g>
</g>
<g>
</g>
<g>
</g>
</svg>
