<?xml version="1.0" encoding="iso-8859-1"?>
<!-- Generator: Adobe Illustrator 19.0.0, SVG Export Plug-In . SVG Version: 6.00 Build 0)  -->
<svg version="1.1" id="Capa_1" xmlns="http://www.w3.org/2000/svg" xmlns:xlink="http://www.w3.org/1999/xlink" x="0px" y="0px"
	 viewBox="0 0 512 512" style="enable-background:new 0 0 512 512;" xml:space="preserve">
<g>
	<g>
		<path d="M482,373.58V138.42c17.459-6.192,30-22.865,30-42.42c0-24.813-20.187-45-45-45c-21.981,0-40.318,15.845-44.222,36.71
			L185.66,124.639C178.046,110.368,163.099,101,146,101c-24.813,0-45,20.187-45,45c0,13.478,6.124,26.05,16.096,34.459
			L45.81,371.018C45.54,371.013,45.271,371,45,371c-24.813,0-45,20.187-45,45s20.187,45,45,45c19.555,0,36.228-12.541,42.42-30
			h337.16c6.192,17.459,22.865,30,42.42,30c24.813,0,45-20.187,45-45C512,396.445,499.459,379.772,482,373.58z M451.999,373.57
			c-12.706,4.504-22.904,14.662-27.429,27.43H87.399c-2.595-7.313-7.252-14.195-13.496-19.459l71.26-190.49
			c22.322,0.482,41.289-15.912,45.128-36.771l237.036-36.916c5.269,9.865,14.094,17.434,24.672,21.116V373.57z"/>
	</g>
</g>
<g>
</g>
<g>
</g>
<g>
</g>
<g>
</g>
<g>
</g>
<g>
</g>
<g>
</g>
<g>
</g>
<g>
</g>
<g>
</g>
<g>
</g>
<g>
</g>
<g>
</g>
<g>
</g>
<g>
</g>
</svg>
