<?xml version="1.0" encoding="iso-8859-1"?>
<!-- Generator: Adobe Illustrator 19.0.0, SVG Export Plug-In . SVG Version: 6.00 Build 0)  -->
<svg version="1.1" id="Capa_1" xmlns="http://www.w3.org/2000/svg" xmlns:xlink="http://www.w3.org/1999/xlink" x="0px" y="0px"
	 viewBox="0 0 512.001 512.001" style="enable-background:new 0 0 512.001 512.001;" xml:space="preserve">
<g>
	<g>
		<path d="M303.928,300.799c-38.245,6.955-77.196,10.466-116.566,10.466c-14.132,0-28.237-0.458-42.291-1.366
			c8.247,56.384,20.918,106.871,37.928,151.102h166.136C343.933,420.496,331.749,364.366,303.928,300.799z"/>
	</g>
</g>
<g>
	<g>
		<path d="M291.099,110.827c7.475-22.816,17.494-42.808,28.123-59.827H136.86c-2.923,43.905-4.972,106.484-0.545,174.625
			c1.201,18.487,2.808,36.453,4.804,53.909c15.357,1.139,30.781,1.731,46.243,1.731c35.598,0,70.835-3.006,105.475-8.968
			C274.509,217.538,273.894,163.343,291.099,110.827z"/>
	</g>
</g>
<g>
	<g>
		<path d="M497.001,51H355.512c-12.79,17.548-26.671,40.991-35.903,69.168c-15.505,47.323-14.503,96.428,2.924,146.257
			c25.137-5.616,49.919-12.81,74.247-21.581c40.353-14.549,78.894-33.195,115.221-55.706V66C512.001,57.716,505.285,51,497.001,51z"
			/>
	</g>
</g>
<g>
	<g>
		<path d="M106.764,51H15C6.716,51,0,57.716,0,66v186.318c9.11,2.9,18.287,5.59,27.526,8.059
			c27.238,7.28,55.009,12.656,83.09,16.137C101.123,189.345,103.065,107.312,106.764,51z"/>
	</g>
</g>
<g>
	<g>
		<path d="M406.954,273.065c-23.952,8.636-48.32,15.818-73.021,21.539c17.189,40.362,37.319,99.049,45.435,166.396H497
			c8.284,0,15-6.716,15-15V224.118C478.582,243.527,443.477,259.897,406.954,273.065z"/>
	</g>
</g>
<g>
	<g>
		<path d="M114.418,307.182c-32.002-3.592-63.646-9.539-94.639-17.823c-6.623-1.77-13.217-3.647-19.779-5.629V446
			c0,8.284,6.716,15,15,15h136.03C133.186,411.565,121.636,358.904,114.418,307.182z"/>
	</g>
</g>
<g>
</g>
<g>
</g>
<g>
</g>
<g>
</g>
<g>
</g>
<g>
</g>
<g>
</g>
<g>
</g>
<g>
</g>
<g>
</g>
<g>
</g>
<g>
</g>
<g>
</g>
<g>
</g>
<g>
</g>
</svg>
