<?xml version="1.0" encoding="iso-8859-1"?>
<!-- Generator: Adobe Illustrator 19.0.0, SVG Export Plug-In . SVG Version: 6.00 Build 0)  -->
<svg version="1.1" id="Capa_1" xmlns="http://www.w3.org/2000/svg" xmlns:xlink="http://www.w3.org/1999/xlink" x="0px" y="0px"
	 viewBox="0 0 512 512" style="enable-background:new 0 0 512 512;" xml:space="preserve">
<g>
	<g>
		<path d="M386.035,400.694h-260.07c-8.286,0-15.004,6.795-15.004,15.178v80.95c0,8.382,6.718,15.178,15.004,15.178h260.07
			c8.287,0,15.004-6.796,15.004-15.178v-80.95C401.039,407.49,394.321,400.694,386.035,400.694z"/>
	</g>
</g>
<g>
	<g>
		<path d="M402.152,297.266L280.572,2.941c-2.195-4.877-9.568-3.329-9.568,2.009v227.773c6.073,4.615,10.003,11.962,10.003,20.238
			c0,13.971-11.196,25.297-25.007,25.297c-13.811,0-25.007-11.326-25.007-25.297c0-8.276,3.929-15.623,10.003-20.238V4.95
			c0-5.338-7.374-6.887-9.568-2.009l-121.58,294.325c-2.233,4.962-1.663,10.753,1.491,15.173l41.323,57.899h206.676l41.323-57.899
			C403.815,308.019,404.384,302.227,402.152,297.266z"/>
	</g>
</g>
<g>
</g>
<g>
</g>
<g>
</g>
<g>
</g>
<g>
</g>
<g>
</g>
<g>
</g>
<g>
</g>
<g>
</g>
<g>
</g>
<g>
</g>
<g>
</g>
<g>
</g>
<g>
</g>
<g>
</g>
</svg>
