<?xml version="1.0" encoding="iso-8859-1"?>
<!-- Generator: Adobe Illustrator 19.0.0, SVG Export Plug-In . SVG Version: 6.00 Build 0)  -->
<svg version="1.1" id="Capa_1" xmlns="http://www.w3.org/2000/svg" xmlns:xlink="http://www.w3.org/1999/xlink" x="0px" y="0px"
	 viewBox="0 0 512 512" style="enable-background:new 0 0 512 512;" xml:space="preserve">
<g>
	<g>
		<path d="M446,0H66c-8.284,0-15,6.716-15,15v482c0,8.284,6.716,15,15,15h380c8.284,0,15-6.716,15-15V15C461,6.716,454.284,0,446,0z
			 M366,371H146c-8.284,0-15-6.716-15-15s6.716-15,15-15h220c8.284,0,15,6.716,15,15S374.284,371,366,371z M131,256
			c0-8.284,6.716-15,15-15h150c8.284,0,15,6.716,15,15s-6.716,15-15,15H146C137.716,271,131,264.284,131,256z M366,171H146
			c-8.284,0-15-6.716-15-15s6.716-15,15-15h220c8.284,0,15,6.716,15,15S374.284,171,366,171z"/>
	</g>
</g>
<g>
</g>
<g>
</g>
<g>
</g>
<g>
</g>
<g>
</g>
<g>
</g>
<g>
</g>
<g>
</g>
<g>
</g>
<g>
</g>
<g>
</g>
<g>
</g>
<g>
</g>
<g>
</g>
<g>
</g>
</svg>
