<?xml version="1.0" encoding="iso-8859-1"?>
<!-- Generator: Adobe Illustrator 19.0.0, SVG Export Plug-In . SVG Version: 6.00 Build 0)  -->
<svg version="1.1" id="Capa_1" xmlns="http://www.w3.org/2000/svg" xmlns:xlink="http://www.w3.org/1999/xlink" x="0px" y="0px"
	 viewBox="0 0 512.001 512.001" style="enable-background:new 0 0 512.001 512.001;" xml:space="preserve">
<g>
	<g>
		<path d="M256,62.501c-138.452,0-256,66.967-256,157.753c0,39.52,22.614,76.444,63.998,105.107
			c-0.145,1.832-0.219,3.674-0.219,5.524c0,32.015,21.777,59.012,51.243,66.882c7.79,29.738,34.731,51.733,66.687,51.733
			c11.046,0,20-8.962,20-20.018c0-11.056-8.954-20.018-20-20.018c-10.345,0-19.436-5.536-24.56-13.837
			c12.178-4.615,22.859-12.628,30.735-23.16c22.059,3.676,44.906,5.539,68.117,5.539c138.445,0,256-66.965,256-157.753
			C512,129.424,394.378,62.501,256,62.501z M132.741,360.059c-19.566,0-33.612-19.306-27.578-38.112
			c3.858-12.104,14.941-20.235,27.578-20.235c15.471,0,28.148,12.282,28.925,27.675
			C162.515,346.146,149.288,360.059,132.741,360.059z M256,337.972c-18.497,0-36.709-1.299-54.368-3.87
			c1.778-39.696-29.855-72.425-68.891-72.425c-20.748,0-40.339,9.29-53.405,25.341C53.816,267.198,40,243.965,40,220.254
			c0-63.294,97.546-117.718,216-117.718c118.496,0,216,54.457,216,117.718C472,283.559,374.43,337.972,256,337.972z"/>
	</g>
</g>
<g>
</g>
<g>
</g>
<g>
</g>
<g>
</g>
<g>
</g>
<g>
</g>
<g>
</g>
<g>
</g>
<g>
</g>
<g>
</g>
<g>
</g>
<g>
</g>
<g>
</g>
<g>
</g>
<g>
</g>
</svg>
