<?xml version="1.0" encoding="iso-8859-1"?>
<!-- Generator: Adobe Illustrator 19.0.0, SVG Export Plug-In . SVG Version: 6.00 Build 0)  -->
<svg version="1.1" id="Capa_1" xmlns="http://www.w3.org/2000/svg" xmlns:xlink="http://www.w3.org/1999/xlink" x="0px" y="0px"
	 viewBox="0 0 512 512" style="enable-background:new 0 0 512 512;" xml:space="preserve">
<g>
	<g>
		<path d="M497,241h-61V96c0-24.813-20.187-45-45-45h-80c-24.813,0-45,20.187-45,45v145h-20V70c0-24.813-20.187-45-45-45h-80
			c-24.813,0-45,20.187-45,45v171H15c-8.284,0-15,6.716-15,15s6.716,15,15,15h61v171c0,24.813,20.187,45,45,45h80
			c24.813,0,45-20.187,45-45V271h20v145c0,24.813,20.187,45,45,45h80c24.813,0,45-20.187,45-45V271h61c8.284,0,15-6.716,15-15
			S505.284,241,497,241z"/>
	</g>
</g>
<g>
</g>
<g>
</g>
<g>
</g>
<g>
</g>
<g>
</g>
<g>
</g>
<g>
</g>
<g>
</g>
<g>
</g>
<g>
</g>
<g>
</g>
<g>
</g>
<g>
</g>
<g>
</g>
<g>
</g>
</svg>
