<?xml version="1.0" encoding="iso-8859-1"?>
<!-- Generator: Adobe Illustrator 19.0.0, SVG Export Plug-In . SVG Version: 6.00 Build 0)  -->
<svg version="1.1" id="Capa_1" xmlns="http://www.w3.org/2000/svg" xmlns:xlink="http://www.w3.org/1999/xlink" x="0px" y="0px"
	 viewBox="0 0 512 512" style="enable-background:new 0 0 512 512;" xml:space="preserve">
<g>
	<g>
		<path d="M497,0H15C6.716,0,0,6.716,0,15s6.716,15,15,15h482c8.284,0,15-6.716,15-15S505.284,0,497,0z"/>
	</g>
</g>
<g>
	<g>
		<path d="M391,50h-80c-24.813,0-45,20.187-45,45v320c0,24.813,20.187,45,45,45h80c24.813,0,45-20.187,45-45V95
			C436,70.187,415.813,50,391,50z"/>
	</g>
</g>
<g>
	<g>
		<path d="M201,50h-80c-24.813,0-45,20.187-45,45v372c0,24.813,20.187,45,45,45h80c24.813,0,45-20.187,45-45V95
			C246,70.187,225.813,50,201,50z"/>
	</g>
</g>
<g>
</g>
<g>
</g>
<g>
</g>
<g>
</g>
<g>
</g>
<g>
</g>
<g>
</g>
<g>
</g>
<g>
</g>
<g>
</g>
<g>
</g>
<g>
</g>
<g>
</g>
<g>
</g>
<g>
</g>
</svg>
