<?xml version="1.0" encoding="iso-8859-1"?>
<!-- Generator: Adobe Illustrator 19.0.0, SVG Export Plug-In . SVG Version: 6.00 Build 0)  -->
<svg version="1.1" id="Capa_1" xmlns="http://www.w3.org/2000/svg" xmlns:xlink="http://www.w3.org/1999/xlink" x="0px" y="0px"
	 viewBox="0 0 512 512" style="enable-background:new 0 0 512 512;" xml:space="preserve">
<g>
	<g>
		<path d="M442,266H271v-20h145c24.813,0,45-20.187,45-45v-80c0-24.813-20.187-45-45-45H271V15c0-8.284-6.716-15-15-15
			s-15,6.716-15,15v61H96c-24.813,0-45,20.187-45,45v80c0,24.813,20.187,45,45,45h145v20H70c-24.813,0-45,20.187-45,45v80
			c0,24.813,20.187,45,45,45h171v61c0,8.284,6.716,15,15,15s15-6.716,15-15v-61h171c24.813,0,45-20.187,45-45v-80
			C487,286.187,466.813,266,442,266z"/>
	</g>
</g>
<g>
</g>
<g>
</g>
<g>
</g>
<g>
</g>
<g>
</g>
<g>
</g>
<g>
</g>
<g>
</g>
<g>
</g>
<g>
</g>
<g>
</g>
<g>
</g>
<g>
</g>
<g>
</g>
<g>
</g>
</svg>
