<?xml version="1.0" encoding="iso-8859-1"?>
<!-- Generator: Adobe Illustrator 19.0.0, SVG Export Plug-In . SVG Version: 6.00 Build 0)  -->
<svg version="1.1" id="Capa_1" xmlns="http://www.w3.org/2000/svg" xmlns:xlink="http://www.w3.org/1999/xlink" x="0px" y="0px"
	 viewBox="0 0 512 512" style="enable-background:new 0 0 512 512;" xml:space="preserve">
<g>
	<g>
		<path d="M15,0C6.716,0,0,6.716,0,15v482c0,8.284,6.716,15,15,15s15-6.716,15-15V15C30,6.716,23.284,0,15,0z"/>
	</g>
</g>
<g>
	<g>
		<path d="M415,76H95c-24.813,0-45,20.187-45,45v80c0,24.813,20.187,45,45,45h320c24.813,0,45-20.187,45-45v-80
			C460,96.187,439.813,76,415,76z"/>
	</g>
</g>
<g>
	<g>
		<path d="M467,266H95c-24.813,0-45,20.187-45,45v80c0,24.813,20.187,45,45,45h372c24.813,0,45-20.187,45-45v-80
			C512,286.187,491.813,266,467,266z"/>
	</g>
</g>
<g>
</g>
<g>
</g>
<g>
</g>
<g>
</g>
<g>
</g>
<g>
</g>
<g>
</g>
<g>
</g>
<g>
</g>
<g>
</g>
<g>
</g>
<g>
</g>
<g>
</g>
<g>
</g>
<g>
</g>
</svg>
