<?xml version="1.0" encoding="iso-8859-1"?>
<!-- Generator: Adobe Illustrator 19.0.0, SVG Export Plug-In . SVG Version: 6.00 Build 0)  -->
<svg version="1.1" id="Capa_1" xmlns="http://www.w3.org/2000/svg" xmlns:xlink="http://www.w3.org/1999/xlink" x="0px" y="0px"
	 viewBox="0 0 512 512" style="enable-background:new 0 0 512 512;" xml:space="preserve">
<g>
	<g>
		<path d="M356,0H156c-24.813,0-45,20.187-45,45c0,10.852,0,410.785,0,422c0,24.813,20.187,45,45,45h200c24.813,0,45-20.187,45-45
			c0-11.215,0-411.148,0-422C401,20.187,380.813,0,356,0z M256,461c-13.807,0-25-11.193-25-25s11.193-25,25-25s25,11.193,25,25
			S269.807,461,256,461z M371,360H141v-90h230V360z M371,240H141v-90h230V240z M371,120H141V45c0-8.271,6.729-15,15-15h200
			c8.271,0,15,6.729,15,15V120z"/>
	</g>
</g>
<g>
</g>
<g>
</g>
<g>
</g>
<g>
</g>
<g>
</g>
<g>
</g>
<g>
</g>
<g>
</g>
<g>
</g>
<g>
</g>
<g>
</g>
<g>
</g>
<g>
</g>
<g>
</g>
<g>
</g>
</svg>
