<?xml version="1.0" encoding="iso-8859-1"?>
<!-- Generator: Adobe Illustrator 19.0.0, SVG Export Plug-In . SVG Version: 6.00 Build 0)  -->
<svg version="1.1" id="Capa_1" xmlns="http://www.w3.org/2000/svg" xmlns:xlink="http://www.w3.org/1999/xlink" x="0px" y="0px"
	 viewBox="0 0 512 512" style="enable-background:new 0 0 512 512;" xml:space="preserve">
<g>
	<g>
		<path d="M507.607,486.396L220.057,198.845l32.722-10.172c14.184-4.409,24.439-16.261,26.763-30.932
			c2.324-14.671-3.766-29.112-15.894-37.689l-38.061-26.916c-2.349-1.661-3.73-4.371-3.693-7.248l0.596-46.614
			c0.189-14.852-7.914-28.267-21.149-35.01c-13.236-6.744-28.852-5.414-40.755,3.469l-37.361,27.881
			c-2.305,1.721-5.309,2.197-8.035,1.272l-44.147-14.97c-14.065-4.77-29.33-1.209-39.833,9.294s-14.064,25.766-9.294,39.833
			l14.971,44.147c0.924,2.725,0.448,5.729-1.272,8.035l-27.881,37.36c-8.884,11.905-10.214,27.521-3.47,40.755
			c6.744,13.235,20.138,21.34,35.011,21.149l46.612-0.596c2.884-0.027,5.587,1.344,7.248,3.693l26.917,38.061
			c7.369,10.419,19.064,16.382,31.516,16.382c17.081,0,32.011-10.864,37.104-27.25l10.172-32.723l287.551,287.551
			C489.323,510.536,493.161,512,497,512s7.677-1.464,10.606-4.393C513.464,501.749,513.464,492.253,507.607,486.396z"/>
	</g>
</g>
<g>
	<g>
		<path d="M433.396,140.484h-34.997v-34.997c0-8.284-6.715-14.999-14.999-14.999s-14.999,6.715-14.999,14.999v34.997h-34.997
			c-8.284,0-14.999,6.715-14.999,14.999s6.715,14.999,14.999,14.999h34.997v34.997c0,8.284,6.715,14.999,14.999,14.999
			s14.999-6.715,14.999-14.999v-34.997h34.997c8.284,0,14.999-6.715,14.999-14.999S441.68,140.484,433.396,140.484z"/>
	</g>
</g>
<g>
	<g>
		<path d="M190.414,368.466h-19.998v-19.998c0-8.284-6.715-14.999-14.999-14.999s-14.999,6.715-14.999,14.999v19.998H120.42
			c-8.284,0-14.999,6.715-14.999,14.999s6.715,14.999,14.999,14.999h19.998v19.998c0,8.284,6.715,14.999,14.999,14.999
			s14.999-6.715,14.999-14.999v-19.998h19.998c8.284,0,14.999-6.715,14.999-14.999C205.414,375.181,198.698,368.466,190.414,368.466
			z"/>
	</g>
</g>
<g>
</g>
<g>
</g>
<g>
</g>
<g>
</g>
<g>
</g>
<g>
</g>
<g>
</g>
<g>
</g>
<g>
</g>
<g>
</g>
<g>
</g>
<g>
</g>
<g>
</g>
<g>
</g>
<g>
</g>
</svg>
