<?xml version="1.0" encoding="iso-8859-1"?>
<!-- Generator: Adobe Illustrator 19.0.0, SVG Export Plug-In . SVG Version: 6.00 Build 0)  -->
<svg version="1.1" id="Capa_1" xmlns="http://www.w3.org/2000/svg" xmlns:xlink="http://www.w3.org/1999/xlink" x="0px" y="0px"
	 viewBox="0 0 512 512" style="enable-background:new 0 0 512 512;" xml:space="preserve">
<g>
	<g>
		<path d="M256,254.543c-6.987,6.896-12.698,15.073-16.775,24.14c10.962,2.357,22.305,2.418,33.549,0
			C268.698,269.615,262.987,261.439,256,254.543z"/>
	</g>
</g>
<g>
	<g>
		<path d="M281.342,237.654c7.817,8.627,14.278,18.501,19.057,29.28c12.326-8.293,22.202-19.942,28.35-33.617
			C312.803,229.888,296.294,231.408,281.342,237.654z"/>
	</g>
</g>
<g>
	<g>
		<path d="M256,121c-44.94,0-81.555,37.456-79.652,83.107c26.706-5.897,55.225-1.742,79.652,12.805
			c24.407-14.535,52.929-18.706,79.652-12.805C337.553,158.489,300.976,121,256,121z"/>
	</g>
</g>
<g>
	<g>
		<path d="M279.677,307.893c-15.582,3.441-31.768,3.442-47.354,0c-0.971,23.236,8.063,44.679,23.677,60.09
			C271.631,352.556,280.648,331.108,279.677,307.893z"/>
	</g>
</g>
<g>
	<g>
		<path d="M183.251,233.317c6.149,13.675,16.024,25.324,28.349,33.617c4.779-10.78,11.241-20.653,19.057-29.28
			C215.73,231.419,199.223,229.883,183.251,233.317z"/>
	</g>
</g>
<g>
	<g>
		<path d="M467,0H45C20.187,0,0,20.187,0,45v422c0,24.813,20.187,45,45,45h422c24.813,0,45-20.187,45-45V45
			C512,20.187,491.813,0,467,0z M311.975,421c-20.433,0-39.576-5.62-55.975-15.385C239.601,415.38,220.458,421,200.025,421
			c-60.509,0-109.736-49.228-109.736-109.737c0-41.372,23.017-77.465,56.914-96.16C138.551,149.228,189.98,91,256,91
			c66.034,0,117.448,58.238,108.797,124.103c33.898,18.695,56.914,54.788,56.914,96.16C421.711,371.772,372.483,421,311.975,421z"/>
	</g>
</g>
<g>
	<g>
		<path d="M203.178,296.897c-20.979-11.57-37.786-29.805-47.552-51.831c-21.297,14.331-35.336,38.653-35.336,66.197
			c0,43.968,35.77,79.737,79.736,79.737c10.849,0,21.195-2.186,30.632-6.128C208.586,360.512,199.042,328.395,203.178,296.897z"/>
	</g>
</g>
<g>
	<g>
		<path d="M356.375,245.066c-9.766,22.027-26.573,40.261-47.552,51.831c4.139,31.519-5.422,63.63-27.48,87.975
			c9.437,3.942,19.783,6.128,30.632,6.128c43.967,0,79.736-35.77,79.736-79.737C391.711,283.72,377.671,259.397,356.375,245.066z"/>
	</g>
</g>
<g>
</g>
<g>
</g>
<g>
</g>
<g>
</g>
<g>
</g>
<g>
</g>
<g>
</g>
<g>
</g>
<g>
</g>
<g>
</g>
<g>
</g>
<g>
</g>
<g>
</g>
<g>
</g>
<g>
</g>
</svg>
