<?xml version="1.0" encoding="iso-8859-1"?>
<!-- Generator: Adobe Illustrator 19.0.0, SVG Export Plug-In . SVG Version: 6.00 Build 0)  -->
<svg version="1.1" id="Capa_1" xmlns="http://www.w3.org/2000/svg" xmlns:xlink="http://www.w3.org/1999/xlink" x="0px" y="0px"
	 viewBox="0 0 512 512" style="enable-background:new 0 0 512 512;" xml:space="preserve">
<g>
	<g>
		<path d="M395,0H15C6.716,0,0,6.716,0,15v482c0,8.284,6.716,15,15,15h196V256c0-24.813,20.187-45,45-45h154V15
			C410,6.716,403.284,0,395,0z"/>
	</g>
</g>
<g>
	<g>
		<path d="M497,241H256c-8.284,0-15,6.716-15,15v241c0,8.284,6.716,15,15,15h241c8.284,0,15-6.716,15-15V256
			C512,247.716,505.284,241,497,241z"/>
	</g>
</g>
<g>
</g>
<g>
</g>
<g>
</g>
<g>
</g>
<g>
</g>
<g>
</g>
<g>
</g>
<g>
</g>
<g>
</g>
<g>
</g>
<g>
</g>
<g>
</g>
<g>
</g>
<g>
</g>
<g>
</g>
</svg>
