<?xml version="1.0" encoding="iso-8859-1"?>
<!-- Generator: Adobe Illustrator 19.0.0, SVG Export Plug-In . SVG Version: 6.00 Build 0)  -->
<svg version="1.1" id="Capa_1" xmlns="http://www.w3.org/2000/svg" xmlns:xlink="http://www.w3.org/1999/xlink" x="0px" y="0px"
	 viewBox="0 0 512.001 512.001" style="enable-background:new 0 0 512.001 512.001;" xml:space="preserve">
<g>
	<g>
		<path d="M505.296,162.504l-240.999-160c-5.028-3.338-11.566-3.338-16.593,0l-240.999,160c-4.187,2.78-6.704,7.472-6.704,12.497
			c0,5.025,2.517,9.717,6.704,12.497l240.999,160c2.513,1.669,5.404,2.503,8.296,2.503c2.892,0,5.783-0.833,8.297-2.503l240.999-160
			c4.187-2.78,6.704-7.472,6.704-12.497C512,169.976,509.483,165.284,505.296,162.504z"/>
	</g>
</g>
<g>
	<g>
		<path d="M509.495,328.705c-4.583-6.902-13.893-8.78-20.793-4.2L256,478.997L23.298,324.504c-6.901-4.582-16.211-2.7-20.793,4.2
			c-4.582,6.902-2.702,16.212,4.2,20.794l240.999,160c2.513,1.669,5.404,2.503,8.296,2.503c2.892,0,5.783-0.833,8.296-2.502
			l240.999-160C512.197,344.917,514.077,335.607,509.495,328.705z"/>
	</g>
</g>
<g>
	<g>
		<path d="M94.297,290.642l-70.999-47.137c-6.901-4.582-16.211-2.7-20.793,4.2c-4.582,6.902-2.702,16.212,4.2,20.794l70.999,47.136
			c2.553,1.694,5.433,2.505,8.283,2.505c4.857,0,9.623-2.356,12.51-6.704C103.079,304.534,101.199,295.224,94.297,290.642z"/>
	</g>
</g>
<g>
	<g>
		<path d="M368.496,341.315c-4.583-6.902-13.893-8.783-20.793-4.2L256,397.997l-91.706-60.886c-6.902-4.582-16.211-2.701-20.793,4.2
			c-4.582,6.902-2.702,16.212,4.2,20.794l100.003,66.393c2.513,1.669,5.404,2.503,8.296,2.503c2.892,0,5.783-0.833,8.297-2.502
			l99.999-66.39C371.198,357.527,373.078,348.217,368.496,341.315z"/>
	</g>
</g>
<g>
	<g>
		<path d="M509.496,247.704c-4.583-6.901-13.893-8.78-20.793-4.2l-70.5,46.805c-6.902,4.582-8.782,13.892-4.2,20.794
			c2.888,4.35,7.653,6.705,12.51,6.705c2.849,0,5.731-0.811,8.283-2.505l70.5-46.805
			C512.198,263.916,514.078,254.606,509.496,247.704z"/>
	</g>
</g>
<g>
</g>
<g>
</g>
<g>
</g>
<g>
</g>
<g>
</g>
<g>
</g>
<g>
</g>
<g>
</g>
<g>
</g>
<g>
</g>
<g>
</g>
<g>
</g>
<g>
</g>
<g>
</g>
<g>
</g>
</svg>
