<?xml version="1.0" encoding="iso-8859-1"?>
<!-- Generator: Adobe Illustrator 19.0.0, SVG Export Plug-In . SVG Version: 6.00 Build 0)  -->
<svg version="1.1" id="Capa_1" xmlns="http://www.w3.org/2000/svg" xmlns:xlink="http://www.w3.org/1999/xlink" x="0px" y="0px"
	 viewBox="0 0 512 512" style="enable-background:new 0 0 512 512;" xml:space="preserve">
<g>
	<g>
		<path d="M396,162H116c-8.284,0-15,6.716-15,15v320c0,8.284,6.716,15,15,15h280c8.284,0,15-6.716,15-15V177
			C411,168.716,404.284,162,396,162z M321,387c0,8.284-6.716,15-15,15H206c-8.284,0-15-6.716-15-15V287c0-8.284,6.716-15,15-15h100
			c8.284,0,15,6.716,15,15V387z"/>
	</g>
</g>
<g>
	<g>
		<path d="M353.803,87.189C337.612,71.008,317.823,59.727,296,54.086V15c0-8.284-6.716-15-15-15h-50c-8.284,0-15,6.716-15,15v39.079
			c-24.71,6.429-47.094,20.262-64.007,39.778c-9.846,11.361-17.508,24.293-22.753,38.143h253.584
			C376.539,115.382,366.743,100.136,353.803,87.189z"/>
	</g>
</g>
<g>
</g>
<g>
</g>
<g>
</g>
<g>
</g>
<g>
</g>
<g>
</g>
<g>
</g>
<g>
</g>
<g>
</g>
<g>
</g>
<g>
</g>
<g>
</g>
<g>
</g>
<g>
</g>
<g>
</g>
</svg>
