<?xml version="1.0" encoding="iso-8859-1"?>
<!-- Generator: Adobe Illustrator 19.0.0, SVG Export Plug-In . SVG Version: 6.00 Build 0)  -->
<svg version="1.1" id="Capa_1" xmlns="http://www.w3.org/2000/svg" xmlns:xlink="http://www.w3.org/1999/xlink" x="0px" y="0px"
	 viewBox="0 0 512 512" style="enable-background:new 0 0 512 512;" xml:space="preserve">
<g>
	<g>
		<path d="M497,90c8.284,0,15-6.716,15-15V15c0-8.284-6.716-15-15-15h-60c-8.284,0-15,6.716-15,15v15H301V15c0-8.284-6.716-15-15-15
			h-60c-8.284,0-15,6.716-15,15v15H90V15c0-8.284-6.716-15-15-15H15C6.716,0,0,6.716,0,15v60c0,8.284,6.716,15,15,15h15v121H15
			c-8.284,0-15,6.716-15,15v60c0,8.284,6.716,15,15,15h15v121H15c-8.284,0-15,6.716-15,15v60c0,8.284,6.716,15,15,15h60
			c8.284,0,15-6.716,15-15v-15h121v15c0,8.284,6.716,15,15,15h60c8.284,0,15-6.716,15-15v-15h121v15c0,8.284,6.716,15,15,15h60
			c8.284,0,15-6.716,15-15v-60c0-8.284-6.716-15-15-15h-15V301h15c8.284,0,15-6.716,15-15v-60c0-8.284-6.716-15-15-15h-15V90H497z
			 M452,211h-15c-8.284,0-15,6.716-15,15v60c0,8.284,6.716,15,15,15h15v121h-15c-8.284,0-15,6.716-15,15v15H301v-15
			c0-8.284-6.716-15-15-15h-60c-8.284,0-15,6.716-15,15v15H90v-15c0-8.284-6.716-15-15-15H60V301h15c8.284,0,15-6.716,15-15v-60
			c0-8.284-6.716-15-15-15H60V90h15c8.284,0,15-6.716,15-15V60h121v15c0,8.284,6.716,15,15,15h60c8.284,0,15-6.716,15-15V60h121v15
			c0,8.284,6.716,15,15,15h15V211z"/>
	</g>
</g>
<g>
	<g>
		<circle cx="256" cy="256" r="25"/>
	</g>
</g>
<g>
</g>
<g>
</g>
<g>
</g>
<g>
</g>
<g>
</g>
<g>
</g>
<g>
</g>
<g>
</g>
<g>
</g>
<g>
</g>
<g>
</g>
<g>
</g>
<g>
</g>
<g>
</g>
<g>
</g>
</svg>
