<?xml version="1.0" encoding="iso-8859-1"?>
<!-- Generator: Adobe Illustrator 19.0.0, SVG Export Plug-In . SVG Version: 6.00 Build 0)  -->
<svg version="1.1" id="Capa_1" xmlns="http://www.w3.org/2000/svg" xmlns:xlink="http://www.w3.org/1999/xlink" x="0px" y="0px"
	 viewBox="0 0 512 512" style="enable-background:new 0 0 512 512;" xml:space="preserve">
<g>
	<g>
		<path d="M437,106h75V15c0-8.284-6.716-15-15-15H347c-8.284,0-15,6.716-15,15v317H15c-8.284,0-15,6.716-15,15v150
			c0,8.284,6.716,15,15,15h91v-75c0-8.284,6.716-15,15-15s15,6.716,15,15v75h90v-75c0-8.284,6.716-15,15-15s15,6.716,15,15v75h241
			c8.284,0,15-6.716,15-15V256h-75c-8.284,0-15-6.716-15-15s6.716-15,15-15h75v-90h-75c-8.284,0-15-6.716-15-15S428.716,106,437,106
			z"/>
	</g>
</g>
<g>
</g>
<g>
</g>
<g>
</g>
<g>
</g>
<g>
</g>
<g>
</g>
<g>
</g>
<g>
</g>
<g>
</g>
<g>
</g>
<g>
</g>
<g>
</g>
<g>
</g>
<g>
</g>
<g>
</g>
</svg>
