<?xml version="1.0" encoding="iso-8859-1"?>
<!-- Generator: Adobe Illustrator 19.0.0, SVG Export Plug-In . SVG Version: 6.00 Build 0)  -->
<svg version="1.1" id="Capa_1" xmlns="http://www.w3.org/2000/svg" xmlns:xlink="http://www.w3.org/1999/xlink" x="0px" y="0px"
	 viewBox="0 0 512.001 512.001" style="enable-background:new 0 0 512.001 512.001;" xml:space="preserve">
<g>
	<g>
		<path d="M488.74,23.261c-31.015-31.015-81.481-31.014-112.495,0l-40.511,40.511L300.7,28.738c-5.857-5.858-15.36-5.853-21.214,0
			l-46.553,46.554c-5.858,5.858-5.858,15.356,0,21.214l25.905,25.905l-173.51,173.51c-12.075,12.075-16.264,29.653-10.931,45.875
			l7.163,21.79l-67.703,67.702c-18.475,18.474-18.478,48.378,0,66.855c18.475,18.476,48.38,18.478,66.855,0l67.971-67.971
			l21.29,7.193c16.327,5.516,34.04,1.373,46.226-10.813l173.39-173.39l25.905,25.905c5.86,5.86,15.358,5.856,21.214,0l46.554-46.553
			c5.857-5.858,5.855-15.361,0-21.214l-35.034-35.034l40.511-40.511C519.755,104.741,519.755,54.276,488.74,23.261z
			 M194.987,405.338c-4.062,4.061-9.964,5.445-15.409,3.604l-30.113-10.174c-5.403-1.825-11.375-0.429-15.409,3.605L59.499,476.93
			c-6.749,6.75-17.675,6.752-24.426,0c-6.75-6.749-6.751-17.675,0-24.426l74.228-74.228c4.002-4.002,5.411-9.915,3.644-15.291
			L102.9,332.429c-1.777-5.407-0.381-11.267,3.644-15.292l173.509-173.509l88.323,88.323L194.987,405.338z"/>
	</g>
</g>
<g>
</g>
<g>
</g>
<g>
</g>
<g>
</g>
<g>
</g>
<g>
</g>
<g>
</g>
<g>
</g>
<g>
</g>
<g>
</g>
<g>
</g>
<g>
</g>
<g>
</g>
<g>
</g>
<g>
</g>
</svg>
