<?xml version="1.0" encoding="iso-8859-1"?>
<!-- Generator: Adobe Illustrator 19.0.0, SVG Export Plug-In . SVG Version: 6.00 Build 0)  -->
<svg version="1.1" id="Capa_1" xmlns="http://www.w3.org/2000/svg" xmlns:xlink="http://www.w3.org/1999/xlink" x="0px" y="0px"
	 viewBox="0 0 512.001 512.001" style="enable-background:new 0 0 512.001 512.001;" xml:space="preserve">
<g>
	<g>
		<path d="M256,0c-8.284,0-15,6.716-15,15v51c0,8.284,6.716,15,15,15s15-6.716,15-15V15C271,6.716,264.284,0,256,0z"/>
	</g>
</g>
<g>
	<g>
		<path d="M256,107.75c-8.284,0-15,6.716-15,15v51c0,8.284,6.716,15,15,15s15-6.716,15-15v-51
			C271,114.466,264.284,107.75,256,107.75z"/>
	</g>
</g>
<g>
	<g>
		<path d="M256,215.5c-8.284,0-15,6.716-15,15v51c0,8.284,6.716,15,15,15s15-6.716,15-15v-51C271,222.216,264.284,215.5,256,215.5z"
			/>
	</g>
</g>
<g>
	<g>
		<path d="M256,323.25c-8.284,0-15,6.716-15,15v51c0,8.284,6.716,15,15,15s15-6.716,15-15v-51
			C271,329.966,264.284,323.25,256,323.25z"/>
	</g>
</g>
<g>
	<g>
		<path d="M256,431c-8.284,0-15,6.716-15,15v51c0,8.284,6.716,15,15,15s15-6.716,15-15v-51C271,437.716,264.284,431,256,431z"/>
	</g>
</g>
<g>
	<g>
		<path d="M174.825,244.665l-150-130c-4.44-3.847-10.712-4.749-16.055-2.31C3.427,114.794,0,120.128,0,126v260
			c0,5.873,3.427,11.206,8.77,13.645c5.354,2.444,11.626,1.528,16.054-2.31l150-130C178.111,264.486,180,260.35,180,256
			C180,251.65,178.111,247.514,174.825,244.665z"/>
	</g>
</g>
<g>
	<g>
		<path d="M503.231,112.355c-5.343-2.438-11.617-1.535-16.055,2.31l-150,130C333.889,247.514,332,251.65,332,256
			c0,4.35,1.889,8.486,5.176,11.335l150,130c4.439,3.847,10.712,4.749,16.055,2.31c5.343-2.439,8.77-7.772,8.77-13.645V126
			C512.001,120.128,508.574,114.794,503.231,112.355z"/>
	</g>
</g>
<g>
</g>
<g>
</g>
<g>
</g>
<g>
</g>
<g>
</g>
<g>
</g>
<g>
</g>
<g>
</g>
<g>
</g>
<g>
</g>
<g>
</g>
<g>
</g>
<g>
</g>
<g>
</g>
<g>
</g>
</svg>
