<?xml version="1.0" encoding="iso-8859-1"?>
<!-- Generator: Adobe Illustrator 19.0.0, SVG Export Plug-In . SVG Version: 6.00 Build 0)  -->
<svg version="1.1" id="Capa_1" xmlns="http://www.w3.org/2000/svg" xmlns:xlink="http://www.w3.org/1999/xlink" x="0px" y="0px"
	 viewBox="0 0 512 512" style="enable-background:new 0 0 512 512;" xml:space="preserve">
<g>
	<g>
		<path d="M148.28,398.896c-13.106-11.982-24.501-25.688-33.869-40.736c-5.837-9.377-18.171-12.245-27.549-6.408
			c-9.377,5.838-12.246,18.174-6.407,27.552c11.297,18.146,25.036,34.672,40.836,49.118c8.152,7.454,20.804,6.886,28.256-1.267
			C157,419.001,156.433,406.35,148.28,398.896z"/>
	</g>
</g>
<g>
	<g>
		<path d="M278.65,22.5c-99.399,0-185.556,62.442-218.862,152.338c-3.504,9.457-6.372,19.072-8.608,28.818H20.001
			c-8.088,0-15.38,4.872-18.477,12.345c-3.096,7.472-1.387,16.075,4.33,21.796l45.707,45.739c7.826,7.833,20.601,7.698,28.293,0
			l45.707-45.739c5.717-5.721,7.426-14.324,4.33-21.796c-3.097-7.473-10.388-12.345-18.477-12.345H92.389
			c22.436-80.494,96.817-141.152,186.261-141.152C385.264,62.504,472,149.306,472,256s-86.736,193.496-193.35,193.496
			c-31.639,0-63.017-7.809-90.739-22.583c-9.747-5.195-21.861-1.503-27.056,8.246c-5.195,9.749-1.503,21.863,8.245,27.058
			c33.492,17.848,71.373,27.283,109.55,27.283c62.332,0,120.933-24.289,165.008-68.395C487.729,377.004,512,318.368,512,256
			C512,127.002,407.698,22.5,278.65,22.5z"/>
	</g>
</g>
<g>
</g>
<g>
</g>
<g>
</g>
<g>
</g>
<g>
</g>
<g>
</g>
<g>
</g>
<g>
</g>
<g>
</g>
<g>
</g>
<g>
</g>
<g>
</g>
<g>
</g>
<g>
</g>
<g>
</g>
</svg>
