<?xml version="1.0" encoding="iso-8859-1"?>
<!-- Generator: Adobe Illustrator 19.0.0, SVG Export Plug-In . SVG Version: 6.00 Build 0)  -->
<svg version="1.1" id="Capa_1" xmlns="http://www.w3.org/2000/svg" xmlns:xlink="http://www.w3.org/1999/xlink" x="0px" y="0px"
	 viewBox="0 0 512.001 512.001" style="enable-background:new 0 0 512.001 512.001;" xml:space="preserve">
<g>
	<g>
		<path d="M471.651,284.996c-24.388-14.035-53.15-13.854-76.606-2.082l-38.919-26.913l38.911-26.909
			c23.746,11.919,52.474,11.805,76.614-2.088c38.593-22.209,51.815-71.339,29.51-109.847C478.941,78.797,429.563,65.6,391.09,87.74
			c-26.246,15.104-40.588,42.442-40.326,70.504l-76.058,41.453l-127.837-88.402c-11.787-8.151-26.901-10.196-40.43-5.468
			l-96.386,33.677c-5.599,1.956-9.521,7.03-10.003,12.943c-0.482,5.913,2.564,11.555,7.772,14.394l342.941,186.915
			c-0.262,28.056,14.075,55.397,40.326,70.504c38.474,22.141,87.852,8.943,110.071-29.417
			C523.436,356.388,510.296,307.235,471.651,284.996z M406.05,113.748c24.189-13.919,55.206-5.628,69.154,18.451
			c13.945,24.075,5.729,54.847-18.513,68.798c-22.753,13.093-51.572,6.534-66.522-14.382
			C372.871,162.413,380.163,128.646,406.05,113.748z M475.204,379.802c-13.953,24.087-44.975,32.366-69.154,18.451
			c-25.177-14.489-33.007-47.102-16.872-71.421c14.652-22.086,44.266-29.206,67.513-15.828
			C480.898,324.935,489.167,355.695,475.204,379.802z"/>
	</g>
</g>
<g>
	<g>
		<path d="M140.059,273.086L7.823,345.16c-5.208,2.839-8.255,8.481-7.772,14.394c0.483,5.913,4.404,10.986,10.003,12.943
			l96.386,33.678c13.394,4.679,28.526,2.763,40.43-5.469l100.205-69.293L140.059,273.086z"/>
	</g>
</g>
<g>
</g>
<g>
</g>
<g>
</g>
<g>
</g>
<g>
</g>
<g>
</g>
<g>
</g>
<g>
</g>
<g>
</g>
<g>
</g>
<g>
</g>
<g>
</g>
<g>
</g>
<g>
</g>
<g>
</g>
</svg>
