<?xml version="1.0" encoding="iso-8859-1"?>
<!-- Generator: Adobe Illustrator 19.0.0, SVG Export Plug-In . SVG Version: 6.00 Build 0)  -->
<svg version="1.1" id="Capa_1" xmlns="http://www.w3.org/2000/svg" xmlns:xlink="http://www.w3.org/1999/xlink" x="0px" y="0px"
	 viewBox="0 0 512.001 512.001" style="enable-background:new 0 0 512.001 512.001;" xml:space="preserve">
<g>
	<g>
		<path d="M452.609,141.716L315.339,4.394c-5.854-5.857-15.359-5.86-21.217,0L128.434,170.146c-13.639,13.644-13.64,35.844,0,49.488
			l108.991,109.033c13.678,13.685,35.826,13.686,49.506,0L452.61,162.925C458.464,157.067,458.464,147.573,452.609,141.716z
			 M328.38,149.879l-68.634,68.661c-5.856,5.858-15.353,5.862-21.213,0.004c-5.859-5.857-5.861-15.355-0.004-21.213l68.634-68.661
			c5.856-5.859,15.354-5.861,21.213-0.004C334.234,134.523,334.236,144.021,328.38,149.879z"/>
	</g>
</g>
<g>
	<g>
		<path d="M96.216,229.84l-36.825,36.839C56.58,269.492,55,273.306,55,277.284V497c0,6.067,3.655,11.538,9.261,13.859
			c5.601,2.32,12.055,1.04,16.347-3.254l146.633-146.689L96.216,229.84z"/>
	</g>
</g>
<g>
</g>
<g>
</g>
<g>
</g>
<g>
</g>
<g>
</g>
<g>
</g>
<g>
</g>
<g>
</g>
<g>
</g>
<g>
</g>
<g>
</g>
<g>
</g>
<g>
</g>
<g>
</g>
<g>
</g>
</svg>
