<?xml version="1.0" encoding="iso-8859-1"?>
<!-- Generator: Adobe Illustrator 19.0.0, SVG Export Plug-In . SVG Version: 6.00 Build 0)  -->
<svg version="1.1" id="Capa_1" xmlns="http://www.w3.org/2000/svg" xmlns:xlink="http://www.w3.org/1999/xlink" x="0px" y="0px"
	 viewBox="0 0 511.999 511.999" style="enable-background:new 0 0 511.999 511.999;" xml:space="preserve">
<g>
	<g>
		<path d="M241.158,373.509c-7.976-48.897-50.309-86.516-101.808-86.544c-62.566,0.011-85.583,47.914-102.242,92.805
			c-4.747,12.767-17.902,21.471-29.509,29.151l-0.879,0.582c-6.76,4.476-8.74,13.514-4.47,20.406
			c21.905,35.363,85.394,68.189,138.341,63.674C205.266,488.08,251.324,435.217,241.158,373.509z"/>
	</g>
</g>
<g>
	<g>
		<path d="M495.338,34.701c-10.574-10.593-24.634-16.524-39.591-16.698c-0.227-0.003-0.453-0.004-0.681-0.004
			c-14.705,0-28.635,5.585-39.288,15.771l-6.991,6.684l80.771,80.917l6.71-7.043c10.316-10.83,15.901-25.037,15.727-40.003
			C511.82,59.359,505.904,45.287,495.338,34.701z"/>
	</g>
</g>
<g>
	<g>
		<path d="M387.097,61.19L176.721,262.319c44.041,12.886,78.545,47.868,90.878,92.055L468.859,143.1L387.097,61.19z"/>
	</g>
</g>
<g>
</g>
<g>
</g>
<g>
</g>
<g>
</g>
<g>
</g>
<g>
</g>
<g>
</g>
<g>
</g>
<g>
</g>
<g>
</g>
<g>
</g>
<g>
</g>
<g>
</g>
<g>
</g>
<g>
</g>
</svg>
