<?xml version="1.0" encoding="iso-8859-1"?>
<!-- Generator: Adobe Illustrator 19.0.0, SVG Export Plug-In . SVG Version: 6.00 Build 0)  -->
<svg version="1.1" id="Capa_1" xmlns="http://www.w3.org/2000/svg" xmlns:xlink="http://www.w3.org/1999/xlink" x="0px" y="0px"
	 viewBox="0 0 512 512" style="enable-background:new 0 0 512 512;" xml:space="preserve">
<g>
	<g>
		<path d="M426,71c-7.012,0-337.147,0-340,0c-8.284,0-15,6.716-15,15v42c0,8.284,6.716,15,15,15s15-6.716,15-15v-27h126v310h-27
			c-8.284,0-15,6.716-15,15s6.716,15,15,15c11.632,0,99.312,0,112,0c8.284,0,15-6.716,15-15s-6.716-15-15-15h-27V101h126v27
			c0,8.284,6.716,15,15,15s15-6.716,15-15V86C441,77.716,434.284,71,426,71z"/>
	</g>
</g>
<g>
	<g>
		<path d="M467,0H45C20.187,0,0,20.188,0,45v204.423c0,6.455,1.427,12.965,4.127,18.825l100.211,217.577
			c7.324,15.9,23.368,26.174,40.874,26.174h221.576c17.506,0,33.55-10.274,40.874-26.175L507.873,268.25
			c2.7-5.861,4.127-12.372,4.127-18.826V45C512,20.188,491.813,0,467,0z M482,249.423c0,2.151-0.476,4.321-1.376,6.275
			L380.413,473.275c-2.441,5.3-7.789,8.725-13.625,8.725H145.212c-5.835,0-11.184-3.425-13.625-8.725L31.375,255.698
			c-0.9-1.953-1.375-4.123-1.375-6.274V45c0-8.271,6.729-15,15-15h422c8.271,0,15,6.729,15,15V249.423z"/>
	</g>
</g>
<g>
</g>
<g>
</g>
<g>
</g>
<g>
</g>
<g>
</g>
<g>
</g>
<g>
</g>
<g>
</g>
<g>
</g>
<g>
</g>
<g>
</g>
<g>
</g>
<g>
</g>
<g>
</g>
<g>
</g>
</svg>
