<?xml version="1.0" encoding="iso-8859-1"?>
<!-- Generator: Adobe Illustrator 19.0.0, SVG Export Plug-In . SVG Version: 6.00 Build 0)  -->
<svg version="1.1" id="Capa_1" xmlns="http://www.w3.org/2000/svg" xmlns:xlink="http://www.w3.org/1999/xlink" x="0px" y="0px"
	 viewBox="0 0 512 512" style="enable-background:new 0 0 512 512;" xml:space="preserve">
<g>
	<g>
		<path d="M482,373.58V138.42c17.459-6.192,30-22.865,30-42.42c0-24.813-20.187-45-45-45c-21.981,0-40.318,15.845-44.222,36.71
			L185.66,124.639C178.046,110.368,163.099,101,146,101c-24.813,0-45,20.187-45,45c0,13.478,6.124,26.05,16.096,34.459
			L45.81,371.018C20.546,370.562,0,390.991,0,416c0,24.813,20.187,45,45,45c19.555,0,36.228-12.541,42.42-30h337.16
			c6.192,17.459,22.865,30,42.42,30c24.813,0,45-20.187,45-45C512,396.445,499.459,379.772,482,373.58z M467,81
			c8.271,0,15,6.729,15,15s-6.729,15-15,15c-8.132,0-15-6.667-15-15C452,87.729,458.729,81,467,81z M146,131c8.132,0,15,6.667,15,15
			c0,8.271-6.729,15-15,15c-8.436,0-15-6.915-15-15C131,137.729,137.729,131,146,131z M45,431c-8.271,0-15-6.729-15-15
			s6.729-15,15-15c8.436,0,15,6.915,15,15C60,424.271,53.271,431,45,431z M424.57,401H87.399
			c-2.588-7.292-7.229-14.176-13.496-19.459l71.282-190.548c22.425,0.403,41.127-15.713,45.05-36.705l237.093-36.925
			c5.086,9.523,13.758,17.317,24.672,21.116V373.57C438.979,378.185,428.971,388.581,424.57,401z M467,431c-8.271,0-15-6.729-15-15
			s6.729-15,15-15s15,6.729,15,15S475.271,431,467,431z"/>
	</g>
</g>
<g>
</g>
<g>
</g>
<g>
</g>
<g>
</g>
<g>
</g>
<g>
</g>
<g>
</g>
<g>
</g>
<g>
</g>
<g>
</g>
<g>
</g>
<g>
</g>
<g>
</g>
<g>
</g>
<g>
</g>
</svg>
