<?xml version="1.0" encoding="iso-8859-1"?>
<!-- Generator: Adobe Illustrator 19.0.0, SVG Export Plug-In . SVG Version: 6.00 Build 0)  -->
<svg version="1.1" id="Capa_1" xmlns="http://www.w3.org/2000/svg" xmlns:xlink="http://www.w3.org/1999/xlink" x="0px" y="0px"
	 viewBox="0 0 512 512" style="enable-background:new 0 0 512 512;" xml:space="preserve">
<g>
	<g>
		<path d="M497,0C494.78,0,16.991,0,15,0C6.716,0,0,6.716,0,15v60c0,8.284,6.716,15,15,15s15-6.716,15-15V30h191v452h-45
			c-8.284,0-15,6.716-15,15s6.716,15,15,15c3.283,0,153.811,0,160,0c8.284,0,15-6.716,15-15s-6.716-15-15-15h-45V30h191v45
			c0,8.284,6.716,15,15,15s15-6.716,15-15V15C512,6.716,505.284,0,497,0z M261,482h-10V30h10V482z"/>
	</g>
</g>
<g>
</g>
<g>
</g>
<g>
</g>
<g>
</g>
<g>
</g>
<g>
</g>
<g>
</g>
<g>
</g>
<g>
</g>
<g>
</g>
<g>
</g>
<g>
</g>
<g>
</g>
<g>
</g>
<g>
</g>
</svg>
