<?xml version="1.0" encoding="iso-8859-1"?>
<!-- Generator: Adobe Illustrator 19.0.0, SVG Export Plug-In . SVG Version: 6.00 Build 0)  -->
<svg version="1.1" id="Capa_1" xmlns="http://www.w3.org/2000/svg" xmlns:xlink="http://www.w3.org/1999/xlink" x="0px" y="0px"
	 viewBox="0 0 512 512" style="enable-background:new 0 0 512 512;" xml:space="preserve">
<g>
	<g>
		<path d="M497,51H15C6.716,51,0,57.716,0,66c0,10.118,0,374.939,0,380c0,8.284,6.716,15,15,15c25.935,0,453.786,0,481.999,0
			c8.284,0,15-6.716,15-15C512,434.118,512,74.083,512,66C512,57.716,505.284,51,497,51z M30,81h75.121
			c-2.519,56.365-2.322,124.707,5.389,195.507c-27.19-3.376-54.086-8.538-80.51-15.48V81z M30.001,431V291.984
			c27.695,6.914,55.861,11.976,84.315,15.173c5.809,41.542,14.404,83.448,26.734,123.843H30.001z M135.159,81h167.79
			c-22.075,47.226-36.294,112.859-10.118,191.266c-49.856,8.575-100.57,11.06-151.694,7.27
			C133.6,213.989,132.196,146.106,135.159,81z M172.487,431c-11.775-36.677-20.933-77.201-27.386-121.114
			c51.697,3.339,104.971,0.68,158.817-9.104C322.736,343.77,336.331,387.485,344.43,431H172.487z M481.999,431H374.91
			c-8.031-45.605-21.788-91.394-40.991-136.404c51.407-11.892,101.088-30.085,148.08-54.143V431z M481.999,206.548
			c-49.226,26.783-102.649,47.173-159.465,59.854C300.982,204.669,303.842,141.513,336.531,81h145.468V206.548z"/>
	</g>
</g>
<g>
</g>
<g>
</g>
<g>
</g>
<g>
</g>
<g>
</g>
<g>
</g>
<g>
</g>
<g>
</g>
<g>
</g>
<g>
</g>
<g>
</g>
<g>
</g>
<g>
</g>
<g>
</g>
<g>
</g>
</svg>
