<?xml version="1.0" encoding="iso-8859-1"?>
<!-- Generator: Adobe Illustrator 19.0.0, SVG Export Plug-In . SVG Version: 6.00 Build 0)  -->
<svg version="1.1" id="Capa_1" xmlns="http://www.w3.org/2000/svg" xmlns:xlink="http://www.w3.org/1999/xlink" x="0px" y="0px"
	 viewBox="0 0 512 512" style="enable-background:new 0 0 512 512;" xml:space="preserve">
<g>
	<g>
		<path d="M467,0H45C20.187,0,0,20.187,0,45v422c0,24.813,20.187,45,45,45h422c24.813,0,45-20.187,45-45V45
			C512,20.187,491.813,0,467,0z M482,467c0,8.271-6.729,15-15,15H45c-8.271,0-15-6.729-15-15V45c0-8.271,6.729-15,15-15h422
			c8.271,0,15,6.729,15,15V467z"/>
	</g>
</g>
<g>
	<g>
		<path d="M386,141H126c-8.284,0-15,6.716-15,15s6.716,15,15,15h260c8.284,0,15-6.716,15-15S394.284,141,386,141z"/>
	</g>
</g>
<g>
	<g>
		<path d="M386,209.925H126c-8.284,0-15,6.716-15,15s6.716,15,15,15h260c8.284,0,15-6.716,15-15S394.284,209.925,386,209.925z"/>
	</g>
</g>
<g>
	<g>
		<path d="M386,281.265H126c-8.284,0-15,6.716-15,15V356c0,8.284,6.716,15,15,15h260c8.284,0,15-6.716,15-15v-59.735
			C401,287.98,394.284,281.265,386,281.265z M371,341H141v-29.735h230V341z"/>
	</g>
</g>
<g>
</g>
<g>
</g>
<g>
</g>
<g>
</g>
<g>
</g>
<g>
</g>
<g>
</g>
<g>
</g>
<g>
</g>
<g>
</g>
<g>
</g>
<g>
</g>
<g>
</g>
<g>
</g>
<g>
</g>
</svg>
