<?xml version="1.0" encoding="iso-8859-1"?>
<!-- Generator: Adobe Illustrator 19.0.0, SVG Export Plug-In . SVG Version: 6.00 Build 0)  -->
<svg version="1.1" id="Capa_1" xmlns="http://www.w3.org/2000/svg" xmlns:xlink="http://www.w3.org/1999/xlink" x="0px" y="0px"
	 viewBox="0 0 512.001 512.001" style="enable-background:new 0 0 512.001 512.001;" xml:space="preserve">
<g>
	<g>
		<path d="M386.036,401.996h-48.363l62.988-87.223c3.154-4.368,3.724-10.092,1.491-14.996L269.657,8.766
			c-5.246-11.516-21.91-11.859-27.312,0L109.849,299.777c-2.233,4.904-1.663,10.627,1.491,14.996l62.988,87.223h-48.363
			c-8.286,0-15.004,6.716-15.004,15.001V497c0,8.285,6.718,15.001,15.004,15.001h260.07c8.286,0,15.004-6.716,15.004-15.001v-80.003
			C401.04,408.712,394.323,401.996,386.036,401.996z M140.772,304.276L240.997,84.144v151.845
			c-6.073,4.561-10.003,11.822-10.003,20.001c0,13.808,11.196,25.001,25.007,25.001c13.811,0,25.007-11.193,25.007-25.001
			c0-8.179-3.929-15.44-10.003-20.001V84.144L371.23,304.276l-70.568,97.72h-89.321L140.772,304.276z M371.032,481.999H140.97
			v-50.002c15.178,0,222.563,0,230.062,0V481.999z"/>
	</g>
</g>
<g>
</g>
<g>
</g>
<g>
</g>
<g>
</g>
<g>
</g>
<g>
</g>
<g>
</g>
<g>
</g>
<g>
</g>
<g>
</g>
<g>
</g>
<g>
</g>
<g>
</g>
<g>
</g>
<g>
</g>
</svg>
