<?xml version="1.0" encoding="iso-8859-1"?>
<!-- Generator: Adobe Illustrator 19.0.0, SVG Export Plug-In . SVG Version: 6.00 Build 0)  -->
<svg version="1.1" id="Capa_1" xmlns="http://www.w3.org/2000/svg" xmlns:xlink="http://www.w3.org/1999/xlink" x="0px" y="0px"
	 viewBox="0 0 512 512" style="enable-background:new 0 0 512 512;" xml:space="preserve">
<g>
	<g>
		<path d="M497,401h-66V199.699c0-3.979-1.58-7.794-4.394-10.606L322.908,85.394C320.095,82.58,316.279,81,312.301,81H111V15
			c0-8.284-6.716-15-15-15S81,6.716,81,15v66H15C6.716,81,0,87.716,0,96s6.716,15,15,15h66v290H15c-8.284,0-15,6.716-15,15
			s6.716,15,15,15h66v66c0,8.284,6.716,15,15,15s15-6.716,15-15v-66h290v66c0,8.284,6.716,15,15,15s15-6.716,15-15v-66h66
			c8.284,0,15-6.716,15-15S505.284,401,497,401z M401,401H111V111h195.088L401,205.912V401z"/>
	</g>
</g>
<g>
</g>
<g>
</g>
<g>
</g>
<g>
</g>
<g>
</g>
<g>
</g>
<g>
</g>
<g>
</g>
<g>
</g>
<g>
</g>
<g>
</g>
<g>
</g>
<g>
</g>
<g>
</g>
<g>
</g>
</svg>
