<?xml version="1.0" encoding="iso-8859-1"?>
<!-- Generator: Adobe Illustrator 19.0.0, SVG Export Plug-In . SVG Version: 6.00 Build 0)  -->
<svg version="1.1" id="Capa_1" xmlns="http://www.w3.org/2000/svg" xmlns:xlink="http://www.w3.org/1999/xlink" x="0px" y="0px"
	 viewBox="0 0 512 512" style="enable-background:new 0 0 512 512;" xml:space="preserve">
<g>
	<g>
		<path d="M446,0H66c-8.284,0-15,6.716-15,15v482c0,8.284,6.716,15,15,15h380c8.284,0,15-6.716,15-15V15C461,6.716,454.284,0,446,0z
			 M431,482H81V30h350V482z"/>
	</g>
</g>
<g>
	<g>
		<path d="M366,141H146c-8.284,0-15,6.716-15,15s6.716,15,15,15h220c8.284,0,15-6.716,15-15S374.284,141,366,141z"/>
	</g>
</g>
<g>
	<g>
		<path d="M296,241H146c-8.284,0-15,6.716-15,15s6.716,15,15,15h150c8.284,0,15-6.716,15-15S304.284,241,296,241z"/>
	</g>
</g>
<g>
	<g>
		<path d="M366,341H146c-8.284,0-15,6.716-15,15s6.716,15,15,15h220c8.284,0,15-6.716,15-15S374.284,341,366,341z"/>
	</g>
</g>
<g>
</g>
<g>
</g>
<g>
</g>
<g>
</g>
<g>
</g>
<g>
</g>
<g>
</g>
<g>
</g>
<g>
</g>
<g>
</g>
<g>
</g>
<g>
</g>
<g>
</g>
<g>
</g>
<g>
</g>
</svg>
