<?xml version="1.0" encoding="iso-8859-1"?>
<!-- Generator: Adobe Illustrator 19.0.0, SVG Export Plug-In . SVG Version: 6.00 Build 0)  -->
<svg version="1.1" id="Capa_1" xmlns="http://www.w3.org/2000/svg" xmlns:xlink="http://www.w3.org/1999/xlink" x="0px" y="0px"
	 viewBox="0 0 512 512" style="enable-background:new 0 0 512 512;" xml:space="preserve">
<g>
	<g>
		<path d="M461.5,326h-16V165c0-3.979-1.58-7.794-4.394-10.606l-150-150C288.294,1.58,284.479,0,280.5,0h-230
			c-8.284,0-15,6.716-15,15v482c0,8.284,6.716,15,15,15h380c8.284,0,15-6.716,15-15v-41h16c8.284,0,15-6.716,15-15V341
			C476.5,332.716,469.784,326,461.5,326z M415.5,482h-350V30h208.787L415.5,171.213V326h-175c-8.284,0-15,6.716-15,15v100
			c0,8.284,6.716,15,15,15h175V482z M446.5,426c-6.876,0-181.458,0-191,0v-70c9.777,0,184.28,0,191,0V426z"/>
	</g>
</g>
<g>
</g>
<g>
</g>
<g>
</g>
<g>
</g>
<g>
</g>
<g>
</g>
<g>
</g>
<g>
</g>
<g>
</g>
<g>
</g>
<g>
</g>
<g>
</g>
<g>
</g>
<g>
</g>
<g>
</g>
</svg>
