<?xml version="1.0" encoding="iso-8859-1"?>
<!-- Generator: Adobe Illustrator 19.0.0, SVG Export Plug-In . SVG Version: 6.00 Build 0)  -->
<svg version="1.1" id="Capa_1" xmlns="http://www.w3.org/2000/svg" xmlns:xlink="http://www.w3.org/1999/xlink" x="0px" y="0px"
	 viewBox="0 0 512 512" style="enable-background:new 0 0 512 512;" xml:space="preserve">
<g>
	<g>
		<path d="M507.606,154.394l-150-150C354.793,1.58,350.978,0,347,0H15C6.716,0,0,6.716,0,15v482c0,8.284,6.716,15,15,15
			c4.169,0,477.84,0,482,0c8.284,0,15-6.716,15-15V165C512,161.021,510.419,157.206,507.606,154.394z M391,482H121V292h270V482z
			 M482,482h-61V277c0-8.284-6.716-15-15-15H106c-8.284,0-15,6.716-15,15v205H30V30h310.787L482,171.213V482z"/>
	</g>
</g>
<g>
</g>
<g>
</g>
<g>
</g>
<g>
</g>
<g>
</g>
<g>
</g>
<g>
</g>
<g>
</g>
<g>
</g>
<g>
</g>
<g>
</g>
<g>
</g>
<g>
</g>
<g>
</g>
<g>
</g>
</svg>
