<?xml version="1.0" encoding="iso-8859-1"?>
<!-- Generator: Adobe Illustrator 19.0.0, SVG Export Plug-In . SVG Version: 6.00 Build 0)  -->
<svg version="1.1" id="Capa_1" xmlns="http://www.w3.org/2000/svg" xmlns:xlink="http://www.w3.org/1999/xlink" x="0px" y="0px"
	 viewBox="0 0 512.001 512.001" style="enable-background:new 0 0 512.001 512.001;" xml:space="preserve">
<g>
	<g>
		<path d="M256,64C117.441,64,0,130.51,0,219.529c0,39.302,23.223,76.133,65.66,104.591c-0.346,2.735-0.53,5.499-0.53,8.284
			c0,31.273,22.075,57.463,51.416,63.745C122.766,425.73,148.911,448,180.134,448c8.284,0,15-6.716,15-15s-6.716-15-15-15
			c-14.896,0-27.641-9.467-32.684-22.761c14.874-4.111,27.865-13.419,36.55-26.329c23.258,4.079,47.424,6.147,72.001,6.147
			c138.559,0,256-66.51,256-155.528C512,130.426,394.418,64,256,64z M130.13,367.591c-19.299,0-35-15.786-35-35.188
			c0-19.359,15.487-35.189,35-35.189c19.299,0,35,15.786,35,35.189C165.13,351.938,149.406,367.591,130.13,367.591z M256,345.057
			c-20.913,0-41.478-1.603-61.338-4.773c0.279-2.331,0.468-5.32,0.468-7.88c0-35.945-29.159-65.189-65-65.189
			c-21.968,0-41.675,10.927-53.451,28.025C46.446,273.282,30,246.8,30,219.529C30,151.133,132.398,94,256,94
			c123.616,0,226,57.142,226,125.528C482,287.924,379.602,345.057,256,345.057z"/>
	</g>
</g>
<g>
</g>
<g>
</g>
<g>
</g>
<g>
</g>
<g>
</g>
<g>
</g>
<g>
</g>
<g>
</g>
<g>
</g>
<g>
</g>
<g>
</g>
<g>
</g>
<g>
</g>
<g>
</g>
<g>
</g>
</svg>
