<?xml version="1.0" encoding="iso-8859-1"?>
<!-- Generator: Adobe Illustrator 19.0.0, SVG Export Plug-In . SVG Version: 6.00 Build 0)  -->
<svg version="1.1" id="Capa_1" xmlns="http://www.w3.org/2000/svg" xmlns:xlink="http://www.w3.org/1999/xlink" x="0px" y="0px"
	 viewBox="0 0 512 512" style="enable-background:new 0 0 512 512;" xml:space="preserve">
<g>
	<g>
		<path d="M333.5,182H197c-8.284,0-15,6.716-15,15v136.5c0,9.107,8.055,16.096,17.043,14.86
			c77.289-10.627,138.69-72.028,149.317-149.317C349.598,190.033,342.588,182,333.5,182z M212,315.236V212h103.236
			C301.985,262.286,262.286,301.985,212,315.236z"/>
	</g>
</g>
<g>
	<g>
		<path d="M345.033,133.444C326.775,58.496,259.029,0,175,0C78.505,0,0,78.505,0,175c0,84.097,58.568,151.795,133.448,170.034
			c8.062,1.961,16.166-2.985,18.124-11.024c1.96-8.049-2.976-16.163-11.024-18.124C78.486,300.771,30,244.623,30,175
			C30,95.047,95.047,30,175,30c69.523,0,125.744,48.388,140.885,110.544c1.962,8.049,10.074,12.982,18.124,11.024
			C342.058,149.607,346.993,141.493,345.033,133.444z"/>
	</g>
</g>
<g>
	<g>
		<path d="M497,182H394.063c-8.284,0-15,6.716-15,15s6.716,15,15,15H482v270H212v-87.937c0-8.284-6.716-15-15-15s-15,6.716-15,15
			V497c0,8.284,6.716,15,15,15h300c8.284,0,15-6.716,15-15V197C512,188.716,505.284,182,497,182z"/>
	</g>
</g>
<g>
</g>
<g>
</g>
<g>
</g>
<g>
</g>
<g>
</g>
<g>
</g>
<g>
</g>
<g>
</g>
<g>
</g>
<g>
</g>
<g>
</g>
<g>
</g>
<g>
</g>
<g>
</g>
<g>
</g>
</svg>
