<?xml version="1.0" encoding="iso-8859-1"?>
<!-- Generator: Adobe Illustrator 19.0.0, SVG Export Plug-In . SVG Version: 6.00 Build 0)  -->
<svg version="1.1" id="Capa_1" xmlns="http://www.w3.org/2000/svg" xmlns:xlink="http://www.w3.org/1999/xlink" x="0px" y="0px"
	 viewBox="0 0 512 512" style="enable-background:new 0 0 512 512;" xml:space="preserve">
<g>
	<g>
		<path d="M497,182H349.859c0.094-2.338,0.141-4.674,0.141-7C350,78.505,271.495,0,175,0S0,78.505,0,175s78.505,175,175,175
			c2.326,0,4.661-0.047,7-0.142V497c0,8.284,6.716,15,15,15h300c8.284,0,15-6.716,15-15V197C512,188.716,505.284,182,497,182z
			 M482,482H212.001V333.488c0-4.335-1.875-8.457-5.143-11.306c-3.267-2.849-7.609-4.147-11.901-3.555
			C188.333,319.538,181.618,320,175,320c-79.953,0-145-65.047-145-145S95.047,30,175,30s145,65.047,145,145
			c0,6.621-0.462,13.335-1.373,19.955c-0.591,4.295,0.705,8.634,3.553,11.902c2.849,3.268,6.972,5.143,11.307,5.143H482V482z"/>
	</g>
</g>
<g>
</g>
<g>
</g>
<g>
</g>
<g>
</g>
<g>
</g>
<g>
</g>
<g>
</g>
<g>
</g>
<g>
</g>
<g>
</g>
<g>
</g>
<g>
</g>
<g>
</g>
<g>
</g>
<g>
</g>
</svg>
