<?xml version="1.0" encoding="iso-8859-1"?>
<!-- Generator: Adobe Illustrator 19.0.0, SVG Export Plug-In . SVG Version: 6.00 Build 0)  -->
<svg version="1.1" id="Capa_1" xmlns="http://www.w3.org/2000/svg" xmlns:xlink="http://www.w3.org/1999/xlink" x="0px" y="0px"
	 viewBox="0 0 512 512" style="enable-background:new 0 0 512 512;" xml:space="preserve">
<g>
	<g>
		<path d="M356,0H156c-24.813,0-45,20.187-45,45v422c0,24.813,20.187,45,45,45h200c24.813,0,45-20.187,45-45V45
			C401,20.187,380.813,0,356,0z M371,467c0,8.271-6.729,15-15,15H156c-8.271,0-15-6.729-15-15v-77h230V467z M371,360H141v-90h230
			V360z M371,240H141v-90h230V240z M371,120H141V45c0-8.271,6.729-15,15-15h200c8.271,0,15,6.729,15,15V120z"/>
	</g>
</g>
<g>
	<g>
		<circle cx="256" cy="436" r="25"/>
	</g>
</g>
<g>
</g>
<g>
</g>
<g>
</g>
<g>
</g>
<g>
</g>
<g>
</g>
<g>
</g>
<g>
</g>
<g>
</g>
<g>
</g>
<g>
</g>
<g>
</g>
<g>
</g>
<g>
</g>
<g>
</g>
</svg>
