<?xml version="1.0" encoding="iso-8859-1"?>
<!-- Generator: Adobe Illustrator 19.0.0, SVG Export Plug-In . SVG Version: 6.00 Build 0)  -->
<svg version="1.1" id="Capa_1" xmlns="http://www.w3.org/2000/svg" xmlns:xlink="http://www.w3.org/1999/xlink" x="0px" y="0px"
	 viewBox="0 0 512.001 512.001" style="enable-background:new 0 0 512.001 512.001;" xml:space="preserve">
<g>
	<g>
		<path d="M507.607,486.396L220.057,198.845l32.723-10.172c14.183-4.409,24.438-16.261,26.763-30.932
			c2.324-14.671-3.766-29.112-15.894-37.689l-38.061-26.916c-2.349-1.661-3.73-4.371-3.693-7.249l0.596-46.613
			c0.189-14.852-7.914-28.268-21.148-35.01c-13.235-6.745-28.852-5.415-40.755,3.469l-37.36,27.88
			c-2.307,1.722-5.311,2.198-8.035,1.273l-44.15-14.97c-14.066-4.769-29.33-1.209-39.833,9.294
			c-10.504,10.503-14.064,25.766-9.294,39.833l14.971,44.147c0.924,2.725,0.448,5.729-1.272,8.035l-27.881,37.36
			c-8.884,11.904-10.214,27.521-3.47,40.755c6.743,13.235,20.138,21.332,35.011,21.149l46.613-0.596
			c2.875,0.006,5.586,1.344,7.247,3.693l26.917,38.061c8.482,11.994,22.856,18.242,37.688,15.894
			c14.671-2.324,26.524-12.578,30.933-26.762l10.172-32.723l287.551,287.551c5.856,5.857,15.354,5.858,21.211,0
			C513.466,501.749,513.466,492.253,507.607,486.396z M173.865,199.358l-13.837,44.516c-0.995,3.2-3.67,5.514-6.979,6.039
			c-3.313,0.523-6.569-0.85-8.504-3.586l-26.917-38.061c-7.267-10.277-19.059-16.37-31.625-16.37c-0.166,0-0.332,0.001-0.498,0.003
			l-46.612,0.595c-0.038,0-0.076,0.001-0.115,0.001c-3.305,0-6.281-1.821-7.786-4.773c-1.521-2.986-1.222-6.509,0.783-9.196
			l27.881-37.361c7.626-10.22,9.735-23.532,5.64-35.609L50.324,61.409c-1.077-3.174-0.273-6.618,2.097-8.988
			c2.37-2.369,5.816-3.173,8.988-2.097l44.148,14.971c12.077,4.095,25.389,1.987,35.609-5.64l37.361-27.881
			c2.686-2.004,6.209-2.305,9.196-0.783c2.986,1.521,4.814,4.548,4.771,7.899l-0.595,46.612
			c-0.164,12.751,5.955,24.76,16.367,32.124l38.062,26.917c2.736,1.935,4.11,5.193,3.586,8.503c-0.524,3.311-2.838,5.985-6.039,6.98
			l-44.517,13.837C187.182,177.652,177.651,187.181,173.865,199.358z"/>
	</g>
</g>
<g>
	<g>
		<path d="M433.396,140.485h-34.997v-34.997c0-8.284-6.715-14.999-14.999-14.999s-14.999,6.715-14.999,14.999v34.997h-34.997
			c-8.284,0-14.999,6.715-14.999,14.999c0,8.283,6.715,14.999,14.999,14.999h34.997v34.997c0,8.284,6.715,14.999,14.999,14.999
			s14.999-6.715,14.999-14.999v-34.997h34.997c8.284,0,14.999-6.715,14.999-14.999S441.68,140.485,433.396,140.485z"/>
	</g>
</g>
<g>
	<g>
		<path d="M190.414,368.466h-19.998v-19.998c0-8.284-6.715-14.999-14.999-14.999s-14.999,6.715-14.999,14.999v19.998H120.42
			c-8.284,0-14.999,6.715-14.999,14.999s6.715,14.999,14.999,14.999h19.998v19.998c0,8.284,6.715,14.999,14.999,14.999
			s14.999-6.715,14.999-14.999v-19.998h19.998c8.284,0,14.999-6.715,14.999-14.999S198.698,368.466,190.414,368.466z"/>
	</g>
</g>
<g>
</g>
<g>
</g>
<g>
</g>
<g>
</g>
<g>
</g>
<g>
</g>
<g>
</g>
<g>
</g>
<g>
</g>
<g>
</g>
<g>
</g>
<g>
</g>
<g>
</g>
<g>
</g>
<g>
</g>
</svg>
