<?xml version="1.0" encoding="iso-8859-1"?>
<!-- Generator: Adobe Illustrator 19.0.0, SVG Export Plug-In . SVG Version: 6.00 Build 0)  -->
<svg version="1.1" id="Capa_1" xmlns="http://www.w3.org/2000/svg" xmlns:xlink="http://www.w3.org/1999/xlink" x="0px" y="0px"
	 viewBox="0 0 512 512" style="enable-background:new 0 0 512 512;" xml:space="preserve">
<g>
	<g>
		<path d="M467,0H45C20.187,0,0,20.187,0,45v422c0,24.813,20.187,45,45,45h422c24.813,0,45-20.187,45-45V45
			C512,20.187,491.813,0,467,0z M482,467c0,8.271-6.729,15-15,15H45c-8.271,0-15-6.729-15-15V45c0-8.271,6.729-15,15-15h422
			c8.271,0,15,6.729,15,15V467z"/>
	</g>
</g>
<g>
	<g>
		<path d="M364.797,215.103c0.618-4.703,0.941-9.497,0.941-14.366C365.737,140.228,316.51,91,256,91
			s-109.737,49.228-109.737,109.737c0,4.869,0.323,9.663,0.941,14.366c-33.898,18.695-56.914,54.788-56.914,96.16
			C90.29,371.773,139.518,421,200.026,421c20.433,0,39.576-5.62,55.975-15.385C272.399,415.38,291.542,421,311.975,421
			c60.509,0,109.736-49.228,109.736-109.737C421.711,269.891,398.694,233.798,364.797,215.103z M256,121
			c44.94,0,81.555,37.456,79.652,83.107c-26.706-5.897-55.225-1.741-79.652,12.805c-24.407-14.535-52.929-18.706-79.652-12.805
			C174.447,158.489,211.024,121,256,121z M328.75,233.317c-6.149,13.675-16.024,25.324-28.349,33.617
			c-4.78-10.779-11.242-20.653-19.058-29.28C296.271,231.419,312.778,229.883,328.75,233.317z M272.775,278.683
			c-10.963,2.357-22.305,2.418-33.55,0c4.077-9.068,9.788-17.244,16.775-24.14C262.987,261.439,268.698,269.616,272.775,278.683z
			 M200.025,391c-43.966,0-79.736-35.77-79.736-79.737c0-27.543,14.04-51.866,35.336-66.197
			c9.766,22.027,26.573,40.261,47.552,51.831c-4.139,31.519,5.422,63.63,27.48,87.975C221.22,388.814,210.874,391,200.025,391z
			 M211.6,266.934c-12.325-8.293-22.2-19.942-28.349-33.617c15.946-3.429,32.455-1.909,47.407,4.337
			C222.841,246.281,216.379,256.155,211.6,266.934z M256,367.983c-15.631-15.427-24.648-36.875-23.677-60.09
			c15.583,3.441,31.768,3.441,47.354,0C280.648,331.13,271.615,352.572,256,367.983z M311.975,391
			c-10.849,0-21.195-2.186-30.632-6.128c22.072-24.36,31.616-56.477,27.48-87.975c20.979-11.57,37.786-29.805,47.552-51.831
			c21.297,14.331,35.336,38.653,35.336,66.197C391.711,355.23,355.941,391,311.975,391z"/>
	</g>
</g>
<g>
</g>
<g>
</g>
<g>
</g>
<g>
</g>
<g>
</g>
<g>
</g>
<g>
</g>
<g>
</g>
<g>
</g>
<g>
</g>
<g>
</g>
<g>
</g>
<g>
</g>
<g>
</g>
<g>
</g>
</svg>
