<?xml version="1.0" encoding="iso-8859-1"?>
<!-- Generator: Adobe Illustrator 19.0.0, SVG Export Plug-In . SVG Version: 6.00 Build 0)  -->
<svg version="1.1" id="Capa_1" xmlns="http://www.w3.org/2000/svg" xmlns:xlink="http://www.w3.org/1999/xlink" x="0px" y="0px"
	 viewBox="0 0 512 512" style="enable-background:new 0 0 512 512;" xml:space="preserve">
<g>
	<g>
		<path d="M497,241h-87V15c0-8.284-6.716-15-15-15H15C6.716,0,0,6.716,0,15v482c0,8.284,6.716,15,15,15c10.432,0,471.568,0,482,0
			c8.284,0,15-6.716,15-15V256C512,247.716,505.284,241,497,241z M241,256v226H30V30h350v211H256C247.716,241,241,247.716,241,256z
			 M482,482H271V271c8.311,0,200.98,0,211,0V482z"/>
	</g>
</g>
<g>
</g>
<g>
</g>
<g>
</g>
<g>
</g>
<g>
</g>
<g>
</g>
<g>
</g>
<g>
</g>
<g>
</g>
<g>
</g>
<g>
</g>
<g>
</g>
<g>
</g>
<g>
</g>
<g>
</g>
</svg>
