<?xml version="1.0" encoding="iso-8859-1"?>
<!-- Generator: Adobe Illustrator 19.0.0, SVG Export Plug-In . SVG Version: 6.00 Build 0)  -->
<svg version="1.1" id="Capa_1" xmlns="http://www.w3.org/2000/svg" xmlns:xlink="http://www.w3.org/1999/xlink" x="0px" y="0px"
	 viewBox="0 0 512 512" style="enable-background:new 0 0 512 512;" xml:space="preserve">
<g>
	<g>
		<path d="M396,162h-5.878c-6.129-52.407-44.19-95.008-94.122-107.914V15c0-8.284-6.716-15-15-15h-50c-8.284,0-15,6.716-15,15
			v39.079C165.453,67.231,128.065,110.083,121.894,162H116c-8.284,0-15,6.716-15,15v320c0,8.284,6.716,15,15,15h280
			c8.284,0,15-6.716,15-15V177C411,168.716,404.284,162,396,162z M246,30h20v20.016c-1.513-0.024-18.496-0.024-20,0V30z
			 M233.245,81.111c9.731-1.472,33.404-1.831,45.507-0.001c42.043,6.42,74.725,39.571,81.103,80.889H152.166
			C158.779,119.699,192.178,87.365,233.245,81.111z M381,482H131V192c19.328,0,244.748,0,250,0V482z"/>
	</g>
</g>
<g>
	<g>
		<path d="M306,272H206c-8.284,0-15,6.716-15,15v100c0,8.284,6.716,15,15,15h100c8.284,0,15-6.716,15-15V287
			C321,278.716,314.284,272,306,272z M291,372h-70v-70h70V372z"/>
	</g>
</g>
<g>
</g>
<g>
</g>
<g>
</g>
<g>
</g>
<g>
</g>
<g>
</g>
<g>
</g>
<g>
</g>
<g>
</g>
<g>
</g>
<g>
</g>
<g>
</g>
<g>
</g>
<g>
</g>
<g>
</g>
</svg>
