<?xml version="1.0" encoding="iso-8859-1"?>
<!-- Generator: Adobe Illustrator 19.0.0, SVG Export Plug-In . SVG Version: 6.00 Build 0)  -->
<svg version="1.1" id="Capa_1" xmlns="http://www.w3.org/2000/svg" xmlns:xlink="http://www.w3.org/1999/xlink" x="0px" y="0px"
	 viewBox="0 0 512 512" style="enable-background:new 0 0 512 512;" xml:space="preserve">
<g>
	<g>
		<path d="M497,90c8.284,0,15-6.716,15-15V15c0-8.284-6.716-15-15-15h-60c-8.284,0-15,6.716-15,15v15H301V15c0-8.284-6.716-15-15-15
			h-60c-8.284,0-15,6.716-15,15v15H90V15c0-8.284-6.716-15-15-15H15C6.716,0,0,6.716,0,15v60c0,8.284,6.716,15,15,15h15v121H15
			c-8.284,0-15,6.716-15,15v60c0,8.284,6.716,15,15,15h15v121H15c-8.284,0-15,6.716-15,15v60c0,8.284,6.716,15,15,15h60
			c8.284,0,15-6.716,15-15v-15h121v15c0,8.284,6.716,15,15,15h60c8.284,0,15-6.716,15-15v-15h121v15c0,8.284,6.716,15,15,15h60
			c8.284,0,15-6.716,15-15v-60c0-8.284-6.716-15-15-15h-15V301h15c8.284,0,15-6.716,15-15v-60c0-8.284-6.716-15-15-15h-15V90H497z
			 M241,30h30c0,10.856,0,19.144,0,30h-30C241,49.144,241,40.856,241,30z M30,30h30c0,10.856,0,19.144,0,30c-10.856,0-19.144,0-30,0
			V30z M30,241c10.856,0,19.144,0,30,0v30c-10.856,0-19.144,0-30,0V241z M60,482H30v-30c10.856,0,19.144,0,30,0
			C60,462.856,60,471.144,60,482z M271,482h-30c0-10.856,0-19.144,0-30h30C271,462.856,271,471.144,271,482z M422,437v15H301v-15
			c0-8.284-6.716-15-15-15h-60c-8.284,0-15,6.716-15,15v15H90v-15c0-8.284-6.716-15-15-15H60V301h15c8.284,0,15-6.716,15-15v-60
			c0-8.284-6.716-15-15-15H60V90h15c8.284,0,15-6.716,15-15V60h121v15c0,8.284,6.716,15,15,15h60c8.284,0,15-6.716,15-15V60h121v15
			c0,8.284,6.716,15,15,15h15v121h-15c-8.284,0-15,6.716-15,15v60c0,8.284,6.716,15,15,15h15v121h-15
			C428.716,422,422,428.716,422,437z M482,482h-30c0-10.856,0-19.144,0-30c10.856,0,19.144,0,30,0V482z M482,271
			c-10.856,0-19.144,0-30,0v-30c10.856,0,19.144,0,30,0V271z M452,60c0-10.856,0-19.144,0-30h30v30C471.144,60,462.856,60,452,60z"
			/>
	</g>
</g>
<g>
	<g>
		<circle cx="256" cy="256" r="25"/>
	</g>
</g>
<g>
</g>
<g>
</g>
<g>
</g>
<g>
</g>
<g>
</g>
<g>
</g>
<g>
</g>
<g>
</g>
<g>
</g>
<g>
</g>
<g>
</g>
<g>
</g>
<g>
</g>
<g>
</g>
<g>
</g>
</svg>
