<?xml version="1.0" encoding="iso-8859-1"?>
<!-- Generator: Adobe Illustrator 19.0.0, SVG Export Plug-In . SVG Version: 6.00 Build 0)  -->
<svg version="1.1" id="Capa_1" xmlns="http://www.w3.org/2000/svg" xmlns:xlink="http://www.w3.org/1999/xlink" x="0px" y="0px"
	 viewBox="0 0 512.001 512.001" style="enable-background:new 0 0 512.001 512.001;" xml:space="preserve">
<g>
	<g>
		<path d="M498.577,419.298L339.269,259.99c12.583-24.931,19.192-52.616,19.192-80.76C358.46,80.402,278.059,0,179.231,0
			S0,80.402,0,179.23s80.403,179.231,179.231,179.231c28.142,0,55.827-6.608,80.76-19.192L419.3,498.577
			c17.896,17.898,46.862,17.898,64.76,0l14.517-14.517C516.474,466.163,516.475,437.196,498.577,419.298z M179.23,328.461
			c-82.286,0-149.231-66.945-149.231-149.231S96.944,29.999,179.23,29.999c82.285,0,149.23,66.945,149.23,149.231
			C328.46,261.639,261.659,328.461,179.23,328.461z M477.364,462.846l-14.517,14.517c-6.173,6.173-16.161,6.174-22.335,0
			L286.198,323.051c13.487-10.052,26.352-22.761,36.853-36.853l154.313,154.313C483.536,446.682,483.538,456.674,477.364,462.846z"
			/>
	</g>
</g>
<g>
</g>
<g>
</g>
<g>
</g>
<g>
</g>
<g>
</g>
<g>
</g>
<g>
</g>
<g>
</g>
<g>
</g>
<g>
</g>
<g>
</g>
<g>
</g>
<g>
</g>
<g>
</g>
<g>
</g>
</svg>
