<?xml version="1.0" encoding="iso-8859-1"?>
<!-- Generator: Adobe Illustrator 19.0.0, SVG Export Plug-In . SVG Version: 6.00 Build 0)  -->
<svg version="1.1" id="Capa_1" xmlns="http://www.w3.org/2000/svg" xmlns:xlink="http://www.w3.org/1999/xlink" x="0px" y="0px"
	 viewBox="0 0 512 512" style="enable-background:new 0 0 512 512;" xml:space="preserve">
<g>
	<g>
		<path d="M471.5,166c-22.332,0-40.5,18.168-40.5,40.5v37.567c-42.515-14.206-87.614-23.001-134.5-26.26V166.5
			c0-22.332-18.168-40.5-40.5-40.5c-22.332,0-40.5,18.168-40.5,40.5v51.307c-46.886,3.259-91.984,12.054-134.5,26.26V206.5
			c0-22.332-18.168-40.5-40.5-40.5C18.168,166,0,184.168,0,206.5v139C0,367.832,18.168,386,40.5,386c22.332,0,40.5-18.168,40.5-40.5
			v-69.692c42.241-15.114,87.377-24.468,134.5-27.922V305.5c0,22.332,18.168,40.5,40.5,40.5c22.332,0,40.5-18.168,40.5-40.5v-57.613
			c47.123,3.454,92.259,12.807,134.5,27.922V345.5c0,22.332,18.168,40.5,40.5,40.5c22.332,0,40.5-18.168,40.5-40.5v-139
			C512,184.168,493.832,166,471.5,166z M51,345.5c0,5.79-4.71,10.5-10.5,10.5S30,351.29,30,345.5v-139c0-5.79,4.71-10.5,10.5-10.5
			S51,200.71,51,206.5V345.5z M266.5,305.5c0,5.79-4.71,10.5-10.5,10.5c-5.79,0-10.5-4.71-10.5-10.5v-139
			c0-5.79,4.71-10.5,10.5-10.5c5.79,0,10.5,4.71,10.5,10.5V305.5z M482,345.5c0,5.79-4.71,10.5-10.5,10.5
			c-5.79,0-10.5-4.71-10.5-10.5v-139c0-5.79,4.71-10.5,10.5-10.5c5.79,0,10.5,4.71,10.5,10.5V345.5z"/>
	</g>
</g>
<g>
</g>
<g>
</g>
<g>
</g>
<g>
</g>
<g>
</g>
<g>
</g>
<g>
</g>
<g>
</g>
<g>
</g>
<g>
</g>
<g>
</g>
<g>
</g>
<g>
</g>
<g>
</g>
<g>
</g>
</svg>
