<?xml version="1.0" encoding="iso-8859-1"?>
<!-- Generator: Adobe Illustrator 19.0.0, SVG Export Plug-In . SVG Version: 6.00 Build 0)  -->
<svg version="1.1" id="Capa_1" xmlns="http://www.w3.org/2000/svg" xmlns:xlink="http://www.w3.org/1999/xlink" x="0px" y="0px"
	 viewBox="0 0 512 512" style="enable-background:new 0 0 512 512;" xml:space="preserve">
<g>
	<g>
		<path d="M497,0H347c-8.284,0-15,6.716-15,15v317H15c-8.284,0-15,6.716-15,15v150c0,8.284,6.716,15,15,15h482
			c8.284,0,15-6.716,15-15V15C512,6.716,505.284,0,497,0z M482,106h-45c-8.284,0-15,6.716-15,15s6.716,15,15,15h45v90h-45
			c-8.284,0-15,6.716-15,15s6.716,15,15,15h45v226H256v-45c0-8.284-6.716-15-15-15s-15,6.716-15,15v45h-90v-45
			c0-8.284-6.716-15-15-15s-15,6.716-15,15v45H30V362h317c8.284,0,15-6.716,15-15V30h120V106z"/>
	</g>
</g>
<g>
</g>
<g>
</g>
<g>
</g>
<g>
</g>
<g>
</g>
<g>
</g>
<g>
</g>
<g>
</g>
<g>
</g>
<g>
</g>
<g>
</g>
<g>
</g>
<g>
</g>
<g>
</g>
<g>
</g>
</svg>
