<?xml version="1.0" encoding="iso-8859-1"?>
<!-- Generator: Adobe Illustrator 19.0.0, SVG Export Plug-In . SVG Version: 6.00 Build 0)  -->
<svg version="1.1" id="Capa_1" xmlns="http://www.w3.org/2000/svg" xmlns:xlink="http://www.w3.org/1999/xlink" x="0px" y="0px"
	 viewBox="0 0 512.001 512.001" style="enable-background:new 0 0 512.001 512.001;" xml:space="preserve">
<g>
	<g>
		<path d="M502.979,317.996L230.502,199.598c26.679-30.977,43.37-68.952,48.104-109.598h16.395c8.284,0,15-6.716,15-15V15
			c0-8.284-6.716-15-15-15h-60c-8.284,0-15,6.716-15,15v60c0,8.284,6.716,15,15,15h13.362
			c-5.335,38.976-23.597,74.898-52.382,102.447c-29.08,27.831-66.261,44.536-105.98,47.907v-9.265c0-8.284-6.716-15-15-15h-60
			c-8.284,0-15,6.716-15,15v60c0,8.284,6.716,15,15,15h60c8.284,0,15-6.716,15-15v-20.631
			c39.772-2.876,77.462-17.167,109.042-41.233l118.953,273.754c2.391,5.5,7.81,9.022,13.753,9.022
			c6.624,0,12.427-4.329,14.349-10.613l27.229-89.03c5.725-18.716,20.315-33.307,39.03-39.031l89.03-27.229
			c6.008-1.837,10.234-7.224,10.589-13.497C512.332,326.329,508.741,320.5,502.979,317.996z M250.001,30h30v30h-30V30z
			 M60.001,276.089h-30v-30h30V276.089z M403.583,344.638c-28.264,8.645-50.299,30.68-58.943,58.945l-15.336,50.141l-95.606-220.027
			l220.026,95.607L403.583,344.638z"/>
	</g>
</g>
<g>
</g>
<g>
</g>
<g>
</g>
<g>
</g>
<g>
</g>
<g>
</g>
<g>
</g>
<g>
</g>
<g>
</g>
<g>
</g>
<g>
</g>
<g>
</g>
<g>
</g>
<g>
</g>
<g>
</g>
</svg>
