<?xml version="1.0" encoding="iso-8859-1"?>
<!-- Generator: Adobe Illustrator 19.0.0, SVG Export Plug-In . SVG Version: 6.00 Build 0)  -->
<svg version="1.1" id="Capa_1" xmlns="http://www.w3.org/2000/svg" xmlns:xlink="http://www.w3.org/1999/xlink" x="0px" y="0px"
	 viewBox="0 0 511.999 511.999" style="enable-background:new 0 0 511.999 511.999;" xml:space="preserve">
<g>
	<g>
		<path d="M142.337,405.913c-13.75-12.57-25.704-26.947-35.531-42.731c-4.378-7.033-13.628-9.184-20.662-4.806
			c-7.033,4.378-9.185,13.629-4.806,20.662c11.274,18.108,24.987,34.6,40.757,49.017c6.115,5.591,15.604,5.163,21.192-0.95
			C148.877,420.991,148.452,411.502,142.337,405.913z"/>
	</g>
</g>
<g>
	<g>
		<path d="M279.129,23C157.045,23,58.205,116.534,47.265,234.041l-21.656-21.669c-5.856-5.859-15.354-5.863-21.213-0.006
			c-5.859,5.857-5.862,15.354-0.006,21.213l46.676,46.704c5.716,5.719,15.284,5.941,21.22,0l46.676-46.704
			c5.856-5.86,5.853-15.357-0.006-21.213c-5.859-5.855-15.357-5.853-21.213,0.006l-20.168,20.18
			C89.016,131.68,174.879,53,279.129,53c111.863,0,202.87,91.065,202.87,203s-91.007,203-202.87,203
			c-33.197,0-66.121-8.194-95.213-23.697c-7.311-3.896-16.396-1.128-20.292,6.184c-3.896,7.311-1.127,16.396,6.184,20.292
			C203.226,479.587,241.029,489,279.129,489c128.711,0,232.87-104.214,232.87-233C511.999,127.281,407.915,23,279.129,23z"/>
	</g>
</g>
<g>
</g>
<g>
</g>
<g>
</g>
<g>
</g>
<g>
</g>
<g>
</g>
<g>
</g>
<g>
</g>
<g>
</g>
<g>
</g>
<g>
</g>
<g>
</g>
<g>
</g>
<g>
</g>
<g>
</g>
</svg>
