<?xml version="1.0" encoding="iso-8859-1"?>
<!-- Generator: Adobe Illustrator 19.0.0, SVG Export Plug-In . SVG Version: 6.00 Build 0)  -->
<svg version="1.1" id="Capa_1" xmlns="http://www.w3.org/2000/svg" xmlns:xlink="http://www.w3.org/1999/xlink" x="0px" y="0px"
	 viewBox="0 0 512 512" style="enable-background:new 0 0 512 512;" xml:space="preserve">
<g>
	<g>
		<path d="M471.648,284.995c-23.592-13.577-52.647-14.138-76.637-2.103l-38.887-26.891l38.891-26.896
			c24.086,12.081,53.104,11.44,76.633-2.101c38.593-22.209,51.815-71.339,29.51-109.847c-22.22-38.362-71.597-51.558-110.071-29.418
			c-25.626,14.747-40.71,41.647-40.328,70.506l-76.055,41.451l-127.836-88.402c-11.788-8.15-26.902-10.196-40.43-5.468
			l-96.385,33.677c-5.599,1.956-9.521,7.03-10.003,12.943c-0.482,5.913,2.564,11.555,7.772,14.394l163.582,89.158L7.822,345.159
			c-5.208,2.839-8.255,8.481-7.772,14.394c0.483,5.913,4.404,10.986,10.003,12.943l96.385,33.678
			c13.394,4.679,28.525,2.763,40.43-5.469l127.839-88.403l76.053,41.452c-0.381,28.861,14.703,55.759,40.328,70.506
			c38.474,22.141,87.852,8.943,110.071-29.417C523.48,356.304,510.214,307.189,471.648,284.995z M406.047,113.747
			c24.189-13.919,55.206-5.628,69.154,18.451c13.945,24.075,5.729,54.847-18.513,68.798c-23.419,13.474-54.772,6.365-69.155-18.456
			C373.738,158.747,381.438,127.909,406.047,113.747z M357.214,188.897c3.344,7.799,7.978,15.027,13.003,20.877L329.75,237.76
			l-27.411-18.955L357.214,188.897z M129.808,376.023c-3.93,2.717-8.969,3.397-13.477,1.823l-64.463-22.524l150.88-82.238
			l42.456,23.14L129.808,376.023z M357.214,323.101L51.868,156.675l64.463-22.523c4.509-1.577,9.547-0.895,13.477,1.823
			l240.409,166.249C365.021,308.272,360.43,315.6,357.214,323.101z M475.201,379.8c-13.953,24.087-44.975,32.366-69.154,18.451
			c-24.784-14.263-32.202-45.187-18.514-68.795c14.214-24.528,45.449-32.095,69.154-18.454
			C480.895,324.934,489.164,355.694,475.201,379.8z"/>
	</g>
</g>
<g>
</g>
<g>
</g>
<g>
</g>
<g>
</g>
<g>
</g>
<g>
</g>
<g>
</g>
<g>
</g>
<g>
</g>
<g>
</g>
<g>
</g>
<g>
</g>
<g>
</g>
<g>
</g>
<g>
</g>
</svg>
