<?xml version="1.0" encoding="iso-8859-1"?>
<!-- Generator: Adobe Illustrator 19.0.0, SVG Export Plug-In . SVG Version: 6.00 Build 0)  -->
<svg version="1.1" id="Capa_1" xmlns="http://www.w3.org/2000/svg" xmlns:xlink="http://www.w3.org/1999/xlink" x="0px" y="0px"
	 viewBox="0 0 512.001 512.001" style="enable-background:new 0 0 512.001 512.001;" xml:space="preserve">
<g>
	<g>
		<path d="M452.609,141.716L315.339,4.394c-5.854-5.857-15.359-5.86-21.217,0L128.434,170.146
			c-9.686,9.689-12.486,23.692-8.415,35.883l-60.627,60.65C56.58,269.492,55,273.306,55,277.284V497
			c0,6.067,3.655,11.538,9.261,13.859c5.601,2.32,12.055,1.04,16.347-3.254l170.428-170.493c12.07,4.039,26.068,1.387,35.894-8.444
			l165.679-165.742C458.464,157.067,458.464,147.573,452.609,141.716z M85,460.776V283.495l53.635-53.655
			c4.347,4.349,86.91,86.944,88.606,88.64L85,460.776z M265.713,307.458c-1.951,1.951-5.118,1.955-7.072,0L149.65,198.425
			c-1.948-1.949-1.948-5.121,0-7.07l155.08-155.14L420.791,152.32L265.713,307.458z"/>
	</g>
</g>
<g>
	<g>
		<path d="M328.375,128.667c-5.859-5.856-15.357-5.855-21.213,0.004l-68.634,68.661c-5.857,5.859-5.855,15.356,0.004,21.213
			c5.858,5.855,15.355,5.856,21.213-0.004l68.634-68.661C334.235,144.021,334.233,134.524,328.375,128.667z"/>
	</g>
</g>
<g>
</g>
<g>
</g>
<g>
</g>
<g>
</g>
<g>
</g>
<g>
</g>
<g>
</g>
<g>
</g>
<g>
</g>
<g>
</g>
<g>
</g>
<g>
</g>
<g>
</g>
<g>
</g>
<g>
</g>
</svg>
