<?xml version="1.0" encoding="iso-8859-1"?>
<!-- Generator: Adobe Illustrator 19.0.0, SVG Export Plug-In . SVG Version: 6.00 Build 0)  -->
<svg version="1.1" id="Capa_1" xmlns="http://www.w3.org/2000/svg" xmlns:xlink="http://www.w3.org/1999/xlink" x="0px" y="0px"
	 viewBox="0 0 512.001 512.001" style="enable-background:new 0 0 512.001 512.001;" xml:space="preserve">
<g>
	<g>
		<path d="M498.881,211.063L329.955,42.15c-17.533-17.532-45.911-17.534-63.446,0l-63.335,63.33
			c-0.004,0.004-0.009,0.007-0.013,0.011c-0.004,0.004-0.007,0.009-0.011,0.013L13.12,295.519
			c-17.493,17.491-17.493,45.951,0,63.441l119.655,119.647c2.813,2.813,6.628,4.393,10.607,4.393h140.772
			c3.979,0,7.795-1.581,10.607-4.393L435.53,337.85c0.001-0.002,0.003-0.003,0.005-0.004c0.002-0.001,0.003-0.003,0.004-0.005
			l63.343-63.338C516.374,257.013,516.374,228.553,498.881,211.063z M277.942,453.001H149.597L34.335,337.747
			c-5.794-5.794-5.794-15.222,0-21.016l179.434-179.42l189.943,189.928L277.942,453.001z M477.667,253.291l-52.74,52.736
			L234.984,116.099l52.741-52.736c5.809-5.808,15.208-5.808,21.016,0l168.926,168.913
			C483.461,238.07,483.461,247.497,477.667,253.291z"/>
	</g>
</g>
<g>
</g>
<g>
</g>
<g>
</g>
<g>
</g>
<g>
</g>
<g>
</g>
<g>
</g>
<g>
</g>
<g>
</g>
<g>
</g>
<g>
</g>
<g>
</g>
<g>
</g>
<g>
</g>
<g>
</g>
</svg>
