<?xml version="1.0" encoding="iso-8859-1"?>
<!-- Generator: Adobe Illustrator 19.0.0, SVG Export Plug-In . SVG Version: 6.00 Build 0)  -->
<svg version="1.1" id="Capa_1" xmlns="http://www.w3.org/2000/svg" xmlns:xlink="http://www.w3.org/1999/xlink" x="0px" y="0px"
	 viewBox="0 0 512 512" style="enable-background:new 0 0 512 512;" xml:space="preserve">
<g>
	<g>
		<path d="M495.33,34.706c-21.853-21.892-57.17-22.335-79.556-0.931c-15.114,14.45-249.077,238.133-265.455,253.791
			c-3.65-0.384-7.315-0.599-10.963-0.601c-62.563,0.011-85.579,47.914-102.238,92.803c-4.747,12.767-17.902,21.471-29.508,29.15
			c-8.584,5.68-9.194,14.779-5.349,20.987c21.58,34.839,84.761,68.242,138.336,63.673c61.39-5.222,106.88-53.433,101.533-112.468
			c15.643-16.422,239.648-251.577,254.13-266.78C517.598,91.93,517.195,56.612,495.33,34.706z M138.052,463.688
			c-0.001,0-0.002,0-0.003,0c-35.777,3.049-79.492-16.796-101.251-38.483c11.135-8.313,22.585-19.243,28.441-34.989
			c16.998-45.806,33.278-73.244,74.144-73.251c0.039,0,0.077,0,0.115,0c35.814,0,66.316,26.192,72.059,61.396
			C218.94,423.18,184.787,459.715,138.052,463.688z M233.096,347.101c-10.04-21.794-27.605-39.683-49.266-50.069l224.462-214.6
			l39.36,39.432L233.096,347.101z M474.538,93.639l-6.188,6.496l-38.369-38.439l6.523-6.237
			c10.661-10.194,27.174-9.998,37.595,0.441C484.366,66.186,484.563,83.116,474.538,93.639z"/>
	</g>
</g>
<g>
</g>
<g>
</g>
<g>
</g>
<g>
</g>
<g>
</g>
<g>
</g>
<g>
</g>
<g>
</g>
<g>
</g>
<g>
</g>
<g>
</g>
<g>
</g>
<g>
</g>
<g>
</g>
<g>
</g>
</svg>
