<?xml version="1.0" encoding="iso-8859-1"?>
<!-- Generator: Adobe Illustrator 19.0.0, SVG Export Plug-In . SVG Version: 6.00 Build 0)  -->
<svg version="1.1" id="Capa_1" xmlns="http://www.w3.org/2000/svg" xmlns:xlink="http://www.w3.org/1999/xlink" x="0px" y="0px" width='24' height='24'
	 viewBox="0 0 512 512" xml:space="preserve">
<g>
	<g>
		<g>
			<path d="M366.597,256.001c0-52.143-42.422-94.565-94.565-94.565s-94.565,42.422-94.565,94.565s42.421,94.565,94.565,94.565
				S366.597,308.144,366.597,256.001z M217.467,256c0-30.087,24.478-54.564,54.565-54.564c30.087,0,54.565,24.478,54.565,54.565
				c0,30.087-24.477,54.565-54.565,54.565C241.945,310.566,217.467,286.087,217.467,256z"/>
			<path d="M272.034,16.032c-119.701,0-217.111,87.014-236.421,198.501H20.001c-7.376,0-14.154,4.06-17.634,10.563
				c-3.481,6.503-3.099,14.394,0.993,20.531l35.418,53.127c3.709,5.564,9.954,8.906,16.641,8.906c6.688,0,12.932-3.342,16.641-8.906
				l35.419-53.127c4.091-6.137,4.472-14.028,0.992-20.531c-3.481-6.503-10.258-10.563-17.634-10.563H76.399
				c19.146-90.43,99.585-158.501,195.633-158.501C382.295,56.032,472,145.737,472,256s-89.705,199.968-199.968,199.968
				c-11.046,0-20,8.954-20,20c0,11.046,8.954,20,20,20C404.673,495.968,512,388.622,512,256
				C512,123.359,404.655,16.032,272.034,16.032z"/>
		</g>
	</g>
</g>
<g>
</g>
<g>
</g>
<g>
</g>
<g>
</g>
<g>
</g>
<g>
</g>
<g>
</g>
<g>
</g>
<g>
</g>
<g>
</g>
<g>
</g>
<g>
</g>
<g>
</g>
<g>
</g>
<g>
</g>
</svg>
