<svg xmlns="http://www.w3.org/2000/svg" xmlns:xlink="http://www.w3.org/1999/xlink" version="1.1" id="Layer_1" x="0px" y="0px" viewBox="-194 -194 900 900" style="enable-background:new 0 0 512 512;" xml:space="preserve" width="54" height="54">
<ellipse cx='256' cy='256' rx='450' ry='450' fill='#99cc0079' />
<g>
	<g>
		<polygon style="fill:#31f29B;" points="502,256 422,316 422,276 276,276 276,422 316,422 256,502 196,422 236,422 236,276 90,276     90,316 10,256 90,196 90,236 236,236 236,90 196,90 256,10 316,90 276,90 276,236 422,236 422,196   "/>
	</g>
	<g>
		<path d="M508,248l-80-60c-3.03-2.272-7.083-2.637-10.472-0.944C414.14,188.75,412,192.212,412,196v30H286V100h30    c3.788,0,7.25-2.14,8.944-5.528C326.638,91.084,326.272,87.03,324,84L264,4c-1.889-2.519-4.853-4-8-4s-6.111,1.481-8,4l-60,80    c-2.272,3.03-2.638,7.084-0.944,10.472C188.75,97.86,192.212,100,196,100h30v126H100v-30c0-3.788-2.14-7.25-5.528-8.944    C91.085,185.361,87.03,185.728,84,188L4,248c-2.519,1.889-4,4.853-4,8s1.481,6.111,4,8l80,60c3.03,2.273,7.085,2.638,10.472,0.944    C97.86,323.25,100,319.788,100,316v-30h126v126h-30c-3.788,0-7.25,2.14-8.944,5.528c-1.693,3.388-1.328,7.441,0.944,10.472l60,80    c1.889,2.519,4.853,4,8,4s6.111-1.481,8-4l60-80c2.272-3.03,2.638-7.084,0.944-10.472C323.25,414.14,319.788,412,316,412h-30V286    h126v30c0,3.788,2.14,7.25,5.528,8.944c3.389,1.695,7.441,1.329,10.472-0.944l80-60c2.519-1.889,4-4.853,4-8    S510.519,249.889,508,248z M432,296v-20c0-5.522-4.478-10-10-10H276c-5.522,0-10,4.478-10,10v146c0,5.522,4.478,10,10,10h20    l-40,53.333L216,432h20c5.522,0,10-4.478,10-10V276c0-5.522-4.478-10-10-10H90c-5.522,0-10,4.478-10,10v20l-53.333-40L80,216v20    c0,5.522,4.478,10,10,10h146c5.522,0,10-4.478,10-10V90c0-5.522-4.478-10-10-10h-20l40-53.333L296,80h-20c-5.522,0-10,4.478-10,10    v146c0,5.522,4.478,10,10,10h146c5.522,0,10-4.478,10-10v-20l53.333,40L432,296z"/>
	</g>
</g>















</svg>